  0
SECTION
  2
HEADER
  9
$ACADVER
  1
AC1009
  9
$DWGCODEPAGE
  3
ansi_1251
  9
$INSBASE
 10
0.0
 20
0.0
 30
0.0
  9
$EXTMIN
 10
0.0
 20
0.0
 30
0.0
  9
$EXTMAX
 10
900.0
 20
600.0
 30
0.0
  9
$LIMMIN
 10
0.0
 20
0.0
  9
$LIMMAX
 10
900.0
 20
600.0
  9
$ORTHOMODE
 70
     0
  9
$REGENMODE
 70
     1
  9
$FILLMODE
 70
     1
  9
$QTEXTMODE
 70
     0
  9
$MIRRTEXT
 70
     1
  9
$DRAGMODE
 70
     2
  9
$LTSCALE
 40
1.0
  9
$OSMODE
 70
    37
  9
$ATTMODE
 70
     1
  9
$TEXTSIZE
 40
3.5
  9
$TRACEWID
 40
1.0
  9
$TEXTSTYLE
  7
STANDARD
  9
$CLAYER
  8
0
  9
$CELTYPE
  6
BYLAYER
  9
$CECOLOR
 62
   256
  9
$DIMSCALE
 40
1.0
  9
$DIMASZ
 40
3.5
  9
$DIMEXO
 40
0.01
  9
$DIMDLI
 40
3.75
  9
$DIMRND
 40
0.0
  9
$DIMDLE
 40
0.0
  9
$DIMEXE
 40
1.0
  9
$DIMTP
 40
0.0
  9
$DIMTM
 40
0.0
  9
$DIMTXT
 40
3.5
  9
$DIMCEN
 40
2.5
  9
$DIMTSZ
 40
0.0
  9
$DIMTOL
 70
     0
  9
$DIMLIM
 70
     0
  9
$DIMTIH
 70
     1
  9
$DIMTOH
 70
     1
  9
$DIMSE1
 70
     0
  9
$DIMSE2
 70
     0
  9
$DIMTAD
 70
     1
  9
$DIMZIN
 70
     0
  9
$DIMBLK
  1

  9
$DIMASO
 70
     1
  9
$DIMSHO
 70
     1
  9
$DIMPOST
  1

  9
$DIMAPOST
  1

  9
$DIMALT
 70
     0
  9
$DIMALTD
 70
     3
  9
$DIMALTF
 40
0.0393700787
  9
$DIMLFAC
 40
1.0
  9
$DIMTOFL
 70
     1
  9
$DIMTVP
 40
0.0
  9
$DIMTIX
 70
     0
  9
$DIMSOXD
 70
     0
  9
$DIMSAH
 70
     0
  9
$DIMBLK1
  1

  9
$DIMBLK2
  1

  9
$DIMSTYLE
  2
ISO-25
  9
$DIMCLRD
 70
     0
  9
$DIMCLRE
 70
     0
  9
$DIMCLRT
 70
     0
  9
$DIMTFAC
 40
1.0
  9
$DIMGAP
 40
3.0
  9
$LUNITS
 70
     2
  9
$LUPREC
 70
     4
  9
$SKETCHINC
 40
1.0
  9
$FILLETRAD
 40
10.0
  9
$AUNITS
 70
     0
  9
$AUPREC
 70
     2
  9
$MENU
  1
.
  9
$ELEVATION
 40
0.0
  9
$PELEVATION
 40
0.0
  9
$THICKNESS
 40
0.0
  9
$LIMCHECK
 70
     0
  9
$CHAMFERA
 40
0.0
  9
$CHAMFERB
 40
0.0
  9
$SKPOLY
 70
     0
  9
$TDCREATE
 40
2459913.869767627
  9
$TDUPDATE
 40
2459913.869767975
  9
$TDINDWG
 40
0.0000000116
  9
$TDUSRTIMER
 40
0.0000000116
  9
$USRTIMER
 70
     1
  9
$ANGBASE
 50
0.0
  9
$ANGDIR
 70
     0
  9
$PDMODE
 70
     0
  9
$PDSIZE
 40
-1.0
  9
$PLINEWID
 40
0.0
  9
$COORDS
 70
     1
  9
$SPLFRAME
 70
     0
  9
$SPLINETYPE
 70
     6
  9
$SPLINESEGS
 70
     8
  9
$ATTDIA
 70
     0
  9
$ATTREQ
 70
     1
  9
$HANDLING
 70
     1
  9
$HANDSEED
  5
B9
  9
$SURFTAB1
 70
     6
  9
$SURFTAB2
 70
     6
  9
$SURFTYPE
 70
     6
  9
$SURFU
 70
     6
  9
$SURFV
 70
     6
  9
$UCSNAME
  2

  9
$UCSORG
 10
0.0
 20
0.0
 30
0.0
  9
$UCSXDIR
 10
1.0
 20
0.0
 30
0.0
  9
$UCSYDIR
 10
0.0
 20
1.0
 30
0.0
  9
$PUCSNAME
  2

  9
$PUCSORG
 10
0.0
 20
0.0
 30
0.0
  9
$PUCSXDIR
 10
1.0
 20
0.0
 30
0.0
  9
$PUCSYDIR
 10
0.0
 20
1.0
 30
0.0
  9
$USERI1
 70
     0
  9
$USERI2
 70
     0
  9
$USERI3
 70
     0
  9
$USERI4
 70
     0
  9
$USERI5
 70
     0
  9
$USERR1
 40
0.0
  9
$USERR2
 40
0.0
  9
$USERR3
 40
0.0
  9
$USERR4
 40
0.0
  9
$USERR5
 40
0.0
  9
$WORLDVIEW
 70
     1
  9
$SHADEDGE
 70
     3
  9
$SHADEDIF
 70
    70
  9
$TILEMODE
 70
     1
  9
$MAXACTVP
 70
    64
  9
$PLIMCHECK
 70
     0
  9
$PEXTMIN
 10
1.0000000000E+20
 20
1.0000000000E+20
 30
1.0000000000E+20
  9
$PEXTMAX
 10
-1.0000000000E+20
 20
-1.0000000000E+20
 30
-1.0000000000E+20
  9
$PLIMMIN
 10
0.0
 20
0.0
  9
$PLIMMAX
 10
420.0
 20
297.0
  9
$UNITMODE
 70
     0
  9
$VISRETAIN
 70
     1
  9
$PLINEGEN
 70
     0
  9
$PSLTSCALE
 70
     1
  0
ENDSEC
  0
SECTION
  2
TABLES
  0
TABLE
  2
VPORT
 70
     1
  0
VPORT
  2
*ACTIVE
 70
     0
 10
0.0
 20
0.0
 11
1.0
 21
1.0
 12
450.0
 22
300.0
 13
0.0
 23
0.0
 14
10.0
 24
10.0
 15
10.0
 25
10.0
 16
0.0
 26
0.0
 36
1.0
 17
0.0
 27
0.0
 37
0.0
 40
600.0
 41
1.5
 42
50.0
 43
0.0
 44
0.0
 50
0.0
 51
0.0
 71
     0
 72
  2000
 73
     1
 74
     3
 75
     0
 76
     0
 77
     0
 78
     0
  0
ENDTAB
  0
TABLE
  2
LTYPE
 70
     6
  0
LTYPE
  2
CONTINUOUS
 70
     0
  3
Solid line
 72
    65
 73
     0
 40
0.0
  0
LTYPE
  2
HIDDEN
 70
     0
  3
Hidden __ __ __ __ __ __ __ __ __ __ __ __ __ __
 72
    65
 73
     2
 40
1.905
 49
1.27
 49
-0.635
  0
LTYPE
  2
PHANTOM
 70
     0
  3
Phantom ______  __  __  ______  __  __  ______
 72
    65
 73
     6
 40
12.7
 49
6.35
 49
-1.27
 49
1.27
 49
-1.27
 49
1.27
 49
-1.27
  0
LTYPE
  2
CENTER
 70
     0
  3
Center ____ _ ____ _ ____ _ ____ _ ____ _ ____
 72
    65
 73
     4
 40
10.16
 49
6.35
 49
-1.27
 49
1.27
 49
-1.27
  0
LTYPE
  2
CENTERX2
 70
     0
  3
Center (2x) ________  __  ________  __  _____
 72
    65
 73
     4
 40
20.32
 49
12.7
 49
-2.54
 49
2.54
 49
-2.54
  0
LTYPE
  2
DOT2
 70
     0
  3
Dot (.5x) ........................................
 72
    65
 73
     2
 40
0.635
 49
0.0
 49
-0.635
  0
ENDTAB
  0
TABLE
  2
LAYER
 70
     1
  0
LAYER
  2
0
 70
     0
 62
     7
  6
CONTINUOUS
  0
ENDTAB
  0
TABLE
  2
STYLE
 70
     1
  0
STYLE
  2
STANDARD
 70
     0
 40
0.0
 41
1.0
 50
0.0
 71
     0
 42
3.5
  3
txt
  4

  0
ENDTAB
  0
TABLE
  2
VIEW
 70
     0
  0
ENDTAB
  0
TABLE
  2
UCS
 70
     0
  0
ENDTAB
  0
TABLE
  2
APPID
 70
     1
  0
APPID
  2
ACAD
 70
     0
  0
ENDTAB
  0
TABLE
  2
DIMSTYLE
 70
     1
  0
DIMSTYLE
  2
ISO-25
 70
     0
  3

  4

  5

  6

  7

 40
1.0
 41
2.5
 42
0.625
 43
3.75
 44
1.25
 45
0.0
 46
0.0
 47
0.0
 48
0.0
140
2.5
141
2.5
142
0.0
143
0.0393700787
144
1.0
145
0.0
146
1.0
147
0.625
 71
     0
 72
     0
 73
     0
 74
     0
 75
     0
 76
     0
 77
     1
 78
     8
170
     0
171
     3
172
     1
173
     0
174
     0
175
     0
176
     0
177
     0
178
     0
  0
ENDTAB
  0
ENDSEC
  0
SECTION
  2
BLOCKS
  0
BLOCK
  8
0
  2
$MODEL_SPACE
 70
     0
 10
0.0
 20
0.0
 30
0.0
  3
$MODEL_SPACE
  1

  0
ENDBLK
  5
21
  8
0
  0
BLOCK
 67
     1
  8
0
  2
$PAPER_SPACE
 70
     0
 10
0.0
 20
0.0
 30
0.0
  3
$PAPER_SPACE
  1

  0
ENDBLK
  5
1D
 67
     1
  8
0
  0
ENDSEC
  0
SECTION
  2
ENTITIES
  0
LINE
  5
73
  8
0
  6
CONTINUOUS
 62
     7
 10
41.395139381
 20
513.4431470241
 30
0.0
 11
21.395139381
 21
513.4431470241
 31
0.0
  0
LINE
  5
74
  8
0
  6
CONTINUOUS
 62
     7
 10
21.395139381
 20
513.4431470241
 30
0.0
 11
21.395139381
 21
508.4431470241
 31
0.0
  0
LINE
  5
75
  8
0
  6
CONTINUOUS
 62
     7
 10
21.395139381
 20
508.4431470241
 30
0.0
 11
41.395139381
 21
508.4431470241
 31
0.0
  0
LINE
  5
76
  8
0
  6
CONTINUOUS
 62
     7
 10
41.395139381
 20
508.4431470241
 30
0.0
 11
41.395139381
 21
513.4431470241
 31
0.0
  0
LINE
  5
77
  8
0
  6
CONTINUOUS
 62
     7
 10
132.6461753448
 20
513.4431470241
 30
0.0
 11
152.6493821329
 21
513.4431470241
 31
0.0
  0
LINE
  5
78
  8
0
  6
CONTINUOUS
 62
     7
 10
132.6461753448
 20
508.4431470241
 30
0.0
 11
132.6461753448
 21
513.4431470241
 31
0.0
  0
LINE
  5
79
  8
0
  6
CONTINUOUS
 62
     7
 10
152.6493821323
 20
508.4431472703
 30
0.0
 11
132.6461753448
 21
508.4431470241
 31
0.0
  0
POLYLINE
  5
7A
  8
0
  6
CONTINUOUS
 62
     7
 66
     1
 10
0.0
 20
0.0
 30
0.0
 70
   128
  0
VERTEX
  5
AB
  8
0
  6
CONTINUOUS
 62
     7
 10
156.1848695393
 20
435.9431470241
 30
0.0
  0
VERTEX
  5
AC
  8
0
  6
CONTINUOUS
 62
     7
 10
154.9451562981
 20
449.1943130426
 30
0.0
  0
VERTEX
  5
AD
  8
0
  6
CONTINUOUS
 62
     7
 10
153.9717509368
 20
463.0698960765
 30
0.0
  0
VERTEX
  5
AE
  8
0
  6
CONTINUOUS
 62
     7
 10
153.2646534554
 20
477.5698961257
 30
0.0
  0
VERTEX
  5
AF
  8
0
  6
CONTINUOUS
 62
     7
 10
152.8238638539
 20
492.6943131903
 30
0.0
  0
VERTEX
  5
B0
  8
0
  6
CONTINUOUS
 62
     7
 10
152.6493821323
 20
508.4431472703
 30
0.0
  0
SEQEND
  5
B7
  8
0
  6
CONTINUOUS
 62
     7
  0
LINE
  5
7B
  8
0
  6
CONTINUOUS
 62
     7
 10
36.3900576038
 20
435.9431470241
 30
0.0
 11
156.1848695393
 21
435.9431470241
 31
0.0
  0
LINE
  5
7C
  8
0
  6
CONTINUOUS
 62
     7
 10
11.395139381
 20
471.1242060043
 30
0.0
 11
36.3900576038
 21
435.9431470241
 31
0.0
  0
LINE
  5
7D
  8
0
  6
CONTINUOUS
 62
     7
 10
11.395139381
 20
550.762088044
 30
0.0
 11
11.395139381
 21
471.1242060043
 31
0.0
  0
LINE
  5
7E
  8
0
  6
CONTINUOUS
 62
     7
 10
36.3900576038
 20
585.9431470241
 30
0.0
 11
11.395139381
 21
550.762088044
 31
0.0
  0
LINE
  5
7F
  8
0
  6
CONTINUOUS
 62
     7
 10
156.1848695393
 20
585.9431470241
 30
0.0
 11
36.3900576038
 21
585.9431470241
 31
0.0
  0
POLYLINE
  5
80
  8
0
  6
CONTINUOUS
 62
     7
 66
     1
 10
0.0
 20
0.0
 30
0.0
 70
   128
  0
VERTEX
  5
B1
  8
0
  6
CONTINUOUS
 62
     7
 10
152.6493821329
 20
513.4431470241
 30
0.0
  0
VERTEX
  5
B2
  8
0
  6
CONTINUOUS
 62
     7
 10
152.8238638577
 20
529.1919810472
 30
0.0
  0
VERTEX
  5
B3
  8
0
  6
CONTINUOUS
 62
     7
 10
153.2646534608
 20
544.3163980587
 30
0.0
  0
VERTEX
  5
B4
  8
0
  6
CONTINUOUS
 62
     7
 10
153.971750942
 20
558.8163980587
 30
0.0
  0
VERTEX
  5
B5
  8
0
  6
CONTINUOUS
 62
     7
 10
154.9451563016
 20
572.6919810472
 30
0.0
  0
VERTEX
  5
B6
  8
0
  6
CONTINUOUS
 62
     7
 10
156.1848695393
 20
585.9431470241
 30
0.0
  0
SEQEND
  5
B8
  8
0
  6
CONTINUOUS
 62
     7
  0
LINE
  5
81
  8
0
  6
CONTINUOUS
 62
     7
 10
14.0748267818
 20
270.45555528
 30
0.0
 11
430.3059563588
 21
276.8529889939
 31
0.0
  0
ARC
  5
82
  8
0
  6
CONTINUOUS
 62
     7
 10
14.2285076996
 20
260.4567362409
 30
0.0
 40
9.999999999999403
 50
90.8805614622
 51
187.5510728365
  0
LINE
  5
83
  8
0
  6
CONTINUOUS
 62
     7
 10
16.1799818733
 20
169.6374683869
 30
0.0
 11
4.3152265209
 21
259.1426372065
 31
0.0
  0
ARC
  5
84
  8
0
  6
CONTINUOUS
 62
     7
 10
36.0065442306
 20
172.2656664558
 30
0.0
 40
19.99999999999989
 50
187.5510728365
 51
252.0391827214
  0
LINE
  5
85
  8
0
  6
CONTINUOUS
 62
     7
 10
31.7753637951
 20
152.6126842812
 30
0.0
 11
29.8392137201
 21
153.2403140445
 31
0.0
  0
LINE
  5
86
  8
0
  6
CONTINUOUS
 62
     7
 10
55.9300486187
 20
187.8194117706
 30
0.0
 11
31.7753637951
 21
152.6126842812
 31
0.0
  0
LINE
  5
87
  8
0
  6
CONTINUOUS
 62
     7
 10
250.7989937949
 20
166.1491182974
 30
0.0
 11
55.9300486187
 21
187.8194117706
 31
0.0
  0
LINE
  5
88
  8
0
  6
CONTINUOUS
 62
     7
 10
291.1599938316
 20
135.8698334113
 30
0.0
 11
250.7989937949
 21
166.1491182974
 31
0.0
  0
LINE
  5
89
  8
0
  6
CONTINUOUS
 62
     7
 10
349.9255394432
 20
128.6165487216
 30
0.0
 11
291.1599938316
 21
135.8698334113
 31
0.0
  0
LINE
  5
8A
  8
0
  6
CONTINUOUS
 62
     7
 10
356.6848600345
 20
154.3741389953
 30
0.0
 11
349.9255394432
 21
128.6165487216
 31
0.0
  0
LINE
  5
8B
  8
0
  6
CONTINUOUS
 62
     7
 10
398.737219388
 20
149.6977295879
 30
0.0
 11
356.6848600345
 21
154.3741389953
 31
0.0
  0
LINE
  5
8C
  8
0
  6
CONTINUOUS
 62
     7
 10
430.3059563588
 20
276.8529889939
 30
0.0
 11
398.737219388
 21
149.6977295879
 31
0.0
  0
LINE
  5
8D
  8
0
  6
CONTINUOUS
 62
     7
 10
425.6320649168
 20
284.2146620674
 30
0.0
 11
9.4009353398
 21
277.8172283535
 31
0.0
  0
ARC
  5
8E
  8
0
  6
CONTINUOUS
 62
     7
 10
425.478383999
 20
294.2134811065
 30
0.0
 40
9.999999999999403
 50
270.8805614622
 51
7.5510728365
  0
LINE
  5
8F
  8
0
  6
CONTINUOUS
 62
     7
 10
423.5269098253
 20
385.0327489605
 30
0.0
 11
435.3916651776
 21
295.5275801409
 31
0.0
  0
ARC
  5
90
  8
0
  6
CONTINUOUS
 62
     7
 10
403.7003474679
 20
382.4045508916
 30
0.0
 40
19.99999999999998
 50
7.5510728365
 51
72.0391827214
  0
LINE
  5
91
  8
0
  6
CONTINUOUS
 62
     7
 10
407.9315279035
 20
402.0575330662
 30
0.0
 11
409.8676779785
 21
401.4299033029
 31
0.0
  0
LINE
  5
92
  8
0
  6
CONTINUOUS
 62
     7
 10
383.7768430798
 20
366.8508055768
 30
0.0
 11
407.9315279035
 21
402.0575330662
 31
0.0
  0
LINE
  5
93
  8
0
  6
CONTINUOUS
 62
     7
 10
188.9078979036
 20
388.52109905
 30
0.0
 11
383.7768430798
 21
366.8508055768
 31
0.0
  0
LINE
  5
94
  8
0
  6
CONTINUOUS
 62
     7
 10
148.546897867
 20
418.8003839361
 30
0.0
 11
188.9078979036
 21
388.52109905
 31
0.0
  0
LINE
  5
95
  8
0
  6
CONTINUOUS
 62
     7
 10
89.7813522554
 20
426.0536686258
 30
0.0
 11
148.546897867
 21
418.8003839361
 31
0.0
  0
LINE
  5
96
  8
0
  6
CONTINUOUS
 62
     7
 10
83.0220316641
 20
400.2960783521
 30
0.0
 11
89.7813522554
 21
426.0536686258
 31
0.0
  0
LINE
  5
97
  8
0
  6
CONTINUOUS
 62
     7
 10
40.9696723106
 20
404.9724877595
 30
0.0
 11
83.0220316641
 21
400.2960783521
 31
0.0
  0
LINE
  5
98
  8
0
  6
CONTINUOUS
 62
     7
 10
9.4009353398
 20
277.8172283535
 30
0.0
 11
40.9696723106
 21
404.9724877595
 31
0.0
  0
ARC
  5
99
  8
0
  6
CONTINUOUS
 62
     7
 10
46.1909313402
 20
54.1505153278
 30
0.0
 40
29.99999999999997
 50
180.0
 51
254.2861474211
  0
LINE
  5
9A
  8
0
  6
CONTINUOUS
 62
     7
 10
106.2573438649
 20
6.0861954055
 30
0.0
 11
38.0659356089
 21
25.2717264965
 31
0.0
  0
LINE
  5
9B
  8
0
  6
CONTINUOUS
 62
     7
 10
117.7472355251
 20
27.5296123107
 30
0.0
 11
106.2573438649
 21
6.0861954055
 31
0.0
  0
LINE
  5
9C
  8
0
  6
CONTINUOUS
 62
     7
 10
354.6346271553
 20
27.5296123107
 30
0.0
 11
117.7472355251
 21
27.5296123107
 31
0.0
  0
LINE
  5
9D
  8
0
  6
CONTINUOUS
 62
     7
 10
366.1245188155
 20
6.0861954055
 30
0.0
 11
354.6346271553
 21
27.5296123107
 31
0.0
  0
LINE
  5
9E
  8
0
  6
CONTINUOUS
 62
     7
 10
434.3159270715
 20
25.2717264965
 30
0.0
 11
366.1245188155
 21
6.0861954055
 31
0.0
  0
ARC
  5
9F
  8
0
  6
CONTINUOUS
 62
     7
 10
426.1909313402
 20
54.1505153278
 30
0.0
 40
30.0
 50
285.7138525789
 51
0.0
  0
LINE
  5
A0
  8
0
  6
CONTINUOUS
 62
     7
 10
456.1909313402
 20
113.0276614957
 30
0.0
 11
456.1909313402
 21
54.1505153278
 31
0.0
  0
LINE
  5
A1
  8
0
  6
CONTINUOUS
 62
     7
 10
300.920682108
 20
129.6147240434
 30
0.0
 11
456.1909313402
 21
113.0276614957
 31
0.0
  0
LINE
  5
A2
  8
0
  6
CONTINUOUS
 62
     7
 10
243.1909313402
 20
92.3364765153
 30
0.0
 11
300.920682108
 21
129.6147240434
 31
0.0
  0
LINE
  5
A3
  8
0
  6
CONTINUOUS
 62
     7
 10
243.1909313402
 20
62.7371839504
 30
0.0
 11
243.1909313402
 21
92.3364765153
 31
0.0
  0
ARC
  5
A4
  8
0
  6
CONTINUOUS
 62
     7
 10
237.1909313402
 20
62.7371839504
 30
0.0
 40
5.999999999999687
 50
270.0
 51
360.0
  0
LINE
  5
A5
  8
0
  6
CONTINUOUS
 62
     7
 10
235.1909313402
 20
56.7371839504
 30
0.0
 11
237.1909313402
 21
56.7371839504
 31
0.0
  0
ARC
  5
A6
  8
0
  6
CONTINUOUS
 62
     7
 10
235.1909313402
 20
62.7371839504
 30
0.0
 40
5.999999999998579
 50
180.0
 51
270.0
  0
LINE
  5
A7
  8
0
  6
CONTINUOUS
 62
     7
 10
229.1909313402
 20
92.3364765153
 30
0.0
 11
229.1909313402
 21
62.7371839504
 31
0.0
  0
LINE
  5
A8
  8
0
  6
CONTINUOUS
 62
     7
 10
171.4611805723
 20
129.6147240434
 30
0.0
 11
229.1909313402
 21
92.3364765153
 31
0.0
  0
LINE
  5
A9
  8
0
  6
CONTINUOUS
 62
     7
 10
16.1909313402
 20
113.0276614957
 30
0.0
 11
171.4611805723
 21
129.6147240434
 31
0.0
  0
LINE
  5
AA
  8
0
  6
CONTINUOUS
 62
     7
 10
16.1909313402
 20
54.1505153278
 30
0.0
 11
16.1909313402
 21
113.0276614957
 31
0.0
  0
ENDSEC
  0
EOF
