  0
SECTION
  2
HEADER
  9
$ACADVER
  1
AC1009
  9
$DWGCODEPAGE
  3
ansi_1251
  9
$INSBASE
 10
0.0
 20
0.0
 30
0.0
  9
$EXTMIN
 10
0.0
 20
0.0
 30
0.0
  9
$EXTMAX
 10
900.0
 20
600.0
 30
0.0
  9
$LIMMIN
 10
0.0
 20
0.0
  9
$LIMMAX
 10
900.0
 20
600.0
  9
$ORTHOMODE
 70
     0
  9
$REGENMODE
 70
     1
  9
$FILLMODE
 70
     1
  9
$QTEXTMODE
 70
     0
  9
$MIRRTEXT
 70
     1
  9
$DRAGMODE
 70
     2
  9
$LTSCALE
 40
1.0
  9
$OSMODE
 70
    37
  9
$ATTMODE
 70
     1
  9
$TEXTSIZE
 40
3.5
  9
$TRACEWID
 40
1.0
  9
$TEXTSTYLE
  7
STANDARD
  9
$CLAYER
  8
0
  9
$CELTYPE
  6
BYLAYER
  9
$CECOLOR
 62
   256
  9
$DIMSCALE
 40
1.0
  9
$DIMASZ
 40
3.5
  9
$DIMEXO
 40
0.01
  9
$DIMDLI
 40
3.75
  9
$DIMRND
 40
0.0
  9
$DIMDLE
 40
0.0
  9
$DIMEXE
 40
1.0
  9
$DIMTP
 40
0.0
  9
$DIMTM
 40
0.0
  9
$DIMTXT
 40
3.5
  9
$DIMCEN
 40
2.5
  9
$DIMTSZ
 40
0.0
  9
$DIMTOL
 70
     0
  9
$DIMLIM
 70
     0
  9
$DIMTIH
 70
     1
  9
$DIMTOH
 70
     1
  9
$DIMSE1
 70
     0
  9
$DIMSE2
 70
     0
  9
$DIMTAD
 70
     1
  9
$DIMZIN
 70
     0
  9
$DIMBLK
  1

  9
$DIMASO
 70
     1
  9
$DIMSHO
 70
     1
  9
$DIMPOST
  1

  9
$DIMAPOST
  1

  9
$DIMALT
 70
     0
  9
$DIMALTD
 70
     3
  9
$DIMALTF
 40
0.0393700787
  9
$DIMLFAC
 40
1.0
  9
$DIMTOFL
 70
     1
  9
$DIMTVP
 40
0.0
  9
$DIMTIX
 70
     0
  9
$DIMSOXD
 70
     0
  9
$DIMSAH
 70
     0
  9
$DIMBLK1
  1

  9
$DIMBLK2
  1

  9
$DIMSTYLE
  2
ISO-25
  9
$DIMCLRD
 70
     0
  9
$DIMCLRE
 70
     0
  9
$DIMCLRT
 70
     0
  9
$DIMTFAC
 40
1.0
  9
$DIMGAP
 40
3.0
  9
$LUNITS
 70
     2
  9
$LUPREC
 70
     4
  9
$SKETCHINC
 40
1.0
  9
$FILLETRAD
 40
10.0
  9
$AUNITS
 70
     0
  9
$AUPREC
 70
     2
  9
$MENU
  1
.
  9
$ELEVATION
 40
0.0
  9
$PELEVATION
 40
0.0
  9
$THICKNESS
 40
0.0
  9
$LIMCHECK
 70
     0
  9
$CHAMFERA
 40
0.0
  9
$CHAMFERB
 40
0.0
  9
$SKPOLY
 70
     0
  9
$TDCREATE
 40
2459913.870008113
  9
$TDUPDATE
 40
2459913.870008669
  9
$TDINDWG
 40
0.0000000116
  9
$TDUSRTIMER
 40
0.0000000116
  9
$USRTIMER
 70
     1
  9
$ANGBASE
 50
0.0
  9
$ANGDIR
 70
     0
  9
$PDMODE
 70
     0
  9
$PDSIZE
 40
-1.0
  9
$PLINEWID
 40
0.0
  9
$COORDS
 70
     1
  9
$SPLFRAME
 70
     0
  9
$SPLINETYPE
 70
     6
  9
$SPLINESEGS
 70
     8
  9
$ATTDIA
 70
     0
  9
$ATTREQ
 70
     1
  9
$HANDLING
 70
     1
  9
$HANDSEED
  5
1EE
  9
$SURFTAB1
 70
     6
  9
$SURFTAB2
 70
     6
  9
$SURFTYPE
 70
     6
  9
$SURFU
 70
     6
  9
$SURFV
 70
     6
  9
$UCSNAME
  2

  9
$UCSORG
 10
0.0
 20
0.0
 30
0.0
  9
$UCSXDIR
 10
1.0
 20
0.0
 30
0.0
  9
$UCSYDIR
 10
0.0
 20
1.0
 30
0.0
  9
$PUCSNAME
  2

  9
$PUCSORG
 10
0.0
 20
0.0
 30
0.0
  9
$PUCSXDIR
 10
1.0
 20
0.0
 30
0.0
  9
$PUCSYDIR
 10
0.0
 20
1.0
 30
0.0
  9
$USERI1
 70
     0
  9
$USERI2
 70
     0
  9
$USERI3
 70
     0
  9
$USERI4
 70
     0
  9
$USERI5
 70
     0
  9
$USERR1
 40
0.0
  9
$USERR2
 40
0.0
  9
$USERR3
 40
0.0
  9
$USERR4
 40
0.0
  9
$USERR5
 40
0.0
  9
$WORLDVIEW
 70
     1
  9
$SHADEDGE
 70
     3
  9
$SHADEDIF
 70
    70
  9
$TILEMODE
 70
     1
  9
$MAXACTVP
 70
    64
  9
$PLIMCHECK
 70
     0
  9
$PEXTMIN
 10
1.0000000000E+20
 20
1.0000000000E+20
 30
1.0000000000E+20
  9
$PEXTMAX
 10
-1.0000000000E+20
 20
-1.0000000000E+20
 30
-1.0000000000E+20
  9
$PLIMMIN
 10
0.0
 20
0.0
  9
$PLIMMAX
 10
420.0
 20
297.0
  9
$UNITMODE
 70
     0
  9
$VISRETAIN
 70
     1
  9
$PLINEGEN
 70
     0
  9
$PSLTSCALE
 70
     1
  0
ENDSEC
  0
SECTION
  2
TABLES
  0
TABLE
  2
VPORT
 70
     1
  0
VPORT
  2
*ACTIVE
 70
     0
 10
0.0
 20
0.0
 11
1.0
 21
1.0
 12
450.0
 22
300.0
 13
0.0
 23
0.0
 14
10.0
 24
10.0
 15
10.0
 25
10.0
 16
0.0
 26
0.0
 36
1.0
 17
0.0
 27
0.0
 37
0.0
 40
600.0
 41
1.5
 42
50.0
 43
0.0
 44
0.0
 50
0.0
 51
0.0
 71
     0
 72
  2000
 73
     1
 74
     3
 75
     0
 76
     0
 77
     0
 78
     0
  0
ENDTAB
  0
TABLE
  2
LTYPE
 70
     6
  0
LTYPE
  2
CONTINUOUS
 70
     0
  3
Solid line
 72
    65
 73
     0
 40
0.0
  0
LTYPE
  2
HIDDEN
 70
     0
  3
Hidden __ __ __ __ __ __ __ __ __ __ __ __ __ __
 72
    65
 73
     2
 40
1.905
 49
1.27
 49
-0.635
  0
LTYPE
  2
PHANTOM
 70
     0
  3
Phantom ______  __  __  ______  __  __  ______
 72
    65
 73
     6
 40
12.7
 49
6.35
 49
-1.27
 49
1.27
 49
-1.27
 49
1.27
 49
-1.27
  0
LTYPE
  2
CENTER
 70
     0
  3
Center ____ _ ____ _ ____ _ ____ _ ____ _ ____
 72
    65
 73
     4
 40
10.16
 49
6.35
 49
-1.27
 49
1.27
 49
-1.27
  0
LTYPE
  2
CENTERX2
 70
     0
  3
Center (2x) ________  __  ________  __  _____
 72
    65
 73
     4
 40
20.32
 49
12.7
 49
-2.54
 49
2.54
 49
-2.54
  0
LTYPE
  2
DOT2
 70
     0
  3
Dot (.5x) ........................................
 72
    65
 73
     2
 40
0.635
 49
0.0
 49
-0.635
  0
ENDTAB
  0
TABLE
  2
LAYER
 70
     1
  0
LAYER
  2
0
 70
     0
 62
     7
  6
CONTINUOUS
  0
ENDTAB
  0
TABLE
  2
STYLE
 70
     1
  0
STYLE
  2
STANDARD
 70
     0
 40
0.0
 41
1.0
 50
0.0
 71
     0
 42
3.5
  3
txt
  4

  0
ENDTAB
  0
TABLE
  2
VIEW
 70
     0
  0
ENDTAB
  0
TABLE
  2
UCS
 70
     0
  0
ENDTAB
  0
TABLE
  2
APPID
 70
     1
  0
APPID
  2
ACAD
 70
     0
  0
ENDTAB
  0
TABLE
  2
DIMSTYLE
 70
     1
  0
DIMSTYLE
  2
ISO-25
 70
     0
  3

  4

  5

  6

  7

 40
1.0
 41
2.5
 42
0.625
 43
3.75
 44
1.25
 45
0.0
 46
0.0
 47
0.0
 48
0.0
140
2.5
141
2.5
142
0.0
143
0.0393700787
144
1.0
145
0.0
146
1.0
147
0.625
 71
     0
 72
     0
 73
     0
 74
     0
 75
     0
 76
     0
 77
     1
 78
     8
170
     0
171
     3
172
     1
173
     0
174
     0
175
     0
176
     0
177
     0
178
     0
  0
ENDTAB
  0
ENDSEC
  0
SECTION
  2
BLOCKS
  0
BLOCK
  8
0
  2
$MODEL_SPACE
 70
     0
 10
0.0
 20
0.0
 30
0.0
  3
$MODEL_SPACE
  1

  0
ENDBLK
  5
21
  8
0
  0
BLOCK
 67
     1
  8
0
  2
$PAPER_SPACE
 70
     0
 10
0.0
 20
0.0
 30
0.0
  3
$PAPER_SPACE
  1

  0
ENDBLK
  5
1D
 67
     1
  8
0
  0
ENDSEC
  0
SECTION
  2
ENTITIES
  0
LINE
  5
73
  8
0
  6
CONTINUOUS
 62
     7
 10
802.4520121985
 20
258.5625646448
 30
0.0
 11
802.4520121985
 21
263.5625646448
 31
0.0
  0
LINE
  5
74
  8
0
  6
CONTINUOUS
 62
     7
 10
822.4520121985
 20
258.5625646448
 30
0.0
 11
802.4520121985
 21
258.5625646448
 31
0.0
  0
LINE
  5
75
  8
0
  6
CONTINUOUS
 62
     7
 10
822.4520121985
 20
263.5625646448
 30
0.0
 11
822.4520121985
 21
258.5625646448
 31
0.0
  0
LINE
  5
76
  8
0
  6
CONTINUOUS
 62
     7
 10
802.4520121985
 20
263.5625646448
 30
0.0
 11
822.4520121985
 21
263.5625646448
 31
0.0
  0
LINE
  5
77
  8
0
  6
CONTINUOUS
 62
     7
 10
602.4520121985
 20
258.5625646448
 30
0.0
 11
602.4520121985
 21
263.5625646448
 31
0.0
  0
LINE
  5
78
  8
0
  6
CONTINUOUS
 62
     7
 10
622.4520121985
 20
258.5625646448
 30
0.0
 11
602.4520121985
 21
258.5625646448
 31
0.0
  0
LINE
  5
79
  8
0
  6
CONTINUOUS
 62
     7
 10
622.4520121985
 20
263.5625646448
 30
0.0
 11
622.4520121985
 21
258.5625646448
 31
0.0
  0
LINE
  5
7A
  8
0
  6
CONTINUOUS
 62
     7
 10
602.4520121985
 20
263.5625646448
 30
0.0
 11
622.4520121985
 21
263.5625646448
 31
0.0
  0
LINE
  5
7B
  8
0
  6
CONTINUOUS
 62
     7
 10
402.4520121985
 20
258.5625646448
 30
0.0
 11
402.4520121985
 21
263.5625646448
 31
0.0
  0
LINE
  5
7C
  8
0
  6
CONTINUOUS
 62
     7
 10
422.4520121985
 20
263.5625646448
 30
0.0
 11
422.4520121985
 21
258.5625646448
 31
0.0
  0
LINE
  5
7D
  8
0
  6
CONTINUOUS
 62
     7
 10
402.4520121985
 20
263.5625646448
 30
0.0
 11
422.4520121985
 21
263.5625646448
 31
0.0
  0
LINE
  5
7E
  8
0
  6
CONTINUOUS
 62
     7
 10
322.5858217963
 20
263.4213044242
 30
0.0
 11
344.1878896025
 21
263.4213044242
 31
0.0
  0
LINE
  5
7F
  8
0
  6
CONTINUOUS
 62
     7
 10
344.1878896025
 20
263.4213044242
 30
0.0
 11
344.1878896025
 21
275.0213044242
 31
0.0
  0
LINE
  5
80
  8
0
  6
CONTINUOUS
 62
     7
 10
344.1878896025
 20
275.0213044242
 30
0.0
 11
322.5858217963
 21
275.0213044242
 31
0.0
  0
LINE
  5
81
  8
0
  6
CONTINUOUS
 62
     7
 10
322.5858217963
 20
275.0213044242
 30
0.0
 11
322.5858217963
 21
318.4347847058
 31
0.0
  0
LINE
  5
82
  8
0
  6
CONTINUOUS
 62
     7
 10
322.5858217963
 20
318.4347847058
 30
0.0
 11
823.0318582593
 21
286.1680282908
 31
0.0
  0
ARC
  5
83
  8
0
  6
CONTINUOUS
 62
     7
 10
824.3187061318
 20
306.1265859179
 30
0.0
 40
20.0000000000001
 50
266.3109039677
 51
344.2861474211
  0
LINE
  5
84
  8
0
  6
CONTINUOUS
 62
     7
 10
843.5712320194
 20
300.709922097
 30
0.0
 11
868.4196408677
 21
389.0289779654
 31
0.0
  0
LINE
  5
85
  8
0
  6
CONTINUOUS
 62
     7
 10
868.4196408677
 20
389.0289779654
 30
0.0
 11
888.4165187127
 21
378.314176262
 31
0.0
  0
LINE
  5
86
  8
0
  6
CONTINUOUS
 62
     7
 10
888.4165187127
 20
378.314176262
 30
0.0
 11
888.4165187127
 21
143.8109530276
 31
0.0
  0
LINE
  5
87
  8
0
  6
CONTINUOUS
 62
     7
 10
888.4165187127
 20
143.8109530276
 30
0.0
 11
868.4196408677
 21
133.0961513242
 31
0.0
  0
LINE
  5
88
  8
0
  6
CONTINUOUS
 62
     7
 10
868.4196408677
 20
133.0961513242
 30
0.0
 11
843.5712320194
 21
221.4152071926
 31
0.0
  0
ARC
  5
89
  8
0
  6
CONTINUOUS
 62
     7
 10
824.3187061318
 20
215.9985433717
 30
0.0
 40
20.0000000000001
 50
15.7138525789
 51
93.6890960323
  0
LINE
  5
8A
  8
0
  6
CONTINUOUS
 62
     7
 10
823.0318582593
 20
235.9571009987
 30
0.0
 11
322.5858217963
 21
203.6903445837
 31
0.0
  0
LINE
  5
8B
  8
0
  6
CONTINUOUS
 62
     7
 10
322.5858217963
 20
203.6903445837
 30
0.0
 11
322.5858217963
 21
263.4213044242
 31
0.0
  0
LINE
  5
8C
  8
0
  6
CONTINUOUS
 62
     7
 10
502.4520121985
 20
258.5625646448
 30
0.0
 11
502.4520121985
 21
263.5625646448
 31
0.0
  0
LINE
  5
8D
  8
0
  6
CONTINUOUS
 62
     7
 10
522.4520121985
 20
258.5625646448
 30
0.0
 11
502.4520121985
 21
258.5625646448
 31
0.0
  0
LINE
  5
8E
  8
0
  6
CONTINUOUS
 62
     7
 10
522.4520121985
 20
263.5625646448
 30
0.0
 11
522.4520121985
 21
258.5625646448
 31
0.0
  0
LINE
  5
8F
  8
0
  6
CONTINUOUS
 62
     7
 10
502.4520121985
 20
263.5625646448
 30
0.0
 11
522.4520121985
 21
263.5625646448
 31
0.0
  0
LINE
  5
90
  8
0
  6
CONTINUOUS
 62
     7
 10
702.4520121985
 20
258.5625646448
 30
0.0
 11
702.4520121985
 21
263.5625646448
 31
0.0
  0
LINE
  5
91
  8
0
  6
CONTINUOUS
 62
     7
 10
722.4520121985
 20
258.5625646448
 30
0.0
 11
702.4520121985
 21
258.5625646448
 31
0.0
  0
LINE
  5
92
  8
0
  6
CONTINUOUS
 62
     7
 10
722.4520121985
 20
263.5625646448
 30
0.0
 11
722.4520121985
 21
258.5625646448
 31
0.0
  0
LINE
  5
93
  8
0
  6
CONTINUOUS
 62
     7
 10
702.4520121985
 20
263.5625646448
 30
0.0
 11
722.4520121985
 21
263.5625646448
 31
0.0
  0
LINE
  5
94
  8
0
  6
CONTINUOUS
 62
     7
 10
422.4520121985
 20
258.5625646448
 30
0.0
 11
402.4520121985
 21
258.5625646448
 31
0.0
  0
ARC
  5
95
  8
0
  6
CONTINUOUS
 62
     7
 10
82.6924741591
 20
450.0307203099
 30
0.0
 40
31.81195077961402
 50
110.8658235354
 51
240.0
  0
LINE
  5
96
  8
0
  6
CONTINUOUS
 62
     7
 10
82.6924741591
 20
450.0307203099
 30
0.0
 11
66.7864987692
 21
422.4807627908
 31
0.0
  0
LINE
  5
97
  8
0
  6
CONTINUOUS
 62
     7
 10
148.5426235889
 20
450.0307203099
 30
0.0
 11
82.6924741591
 21
450.0307203099
 31
0.0
  0
LINE
  5
98
  8
0
  6
CONTINUOUS
 62
     7
 10
148.5426235889
 20
452.5307203099
 30
0.0
 11
148.5426235889
 21
450.0307203099
 31
0.0
  0
LINE
  5
99
  8
0
  6
CONTINUOUS
 62
     7
 10
168.5426235889
 20
452.5307203099
 30
0.0
 11
148.5426235889
 21
452.5307203099
 31
0.0
  0
LINE
  5
9A
  8
0
  6
CONTINUOUS
 62
     7
 10
168.5426235889
 20
450.0307203099
 30
0.0
 11
168.5426235889
 21
452.5307203099
 31
0.0
  0
LINE
  5
9B
  8
0
  6
CONTINUOUS
 62
     7
 10
248.5426235889
 20
450.0307203099
 30
0.0
 11
168.5426235889
 21
450.0307203099
 31
0.0
  0
LINE
  5
9C
  8
0
  6
CONTINUOUS
 62
     7
 10
248.5426235889
 20
452.5307203099
 30
0.0
 11
248.5426235889
 21
450.0307203099
 31
0.0
  0
LINE
  5
9D
  8
0
  6
CONTINUOUS
 62
     7
 10
268.5426235889
 20
452.5307203099
 30
0.0
 11
248.5426235889
 21
452.5307203099
 31
0.0
  0
LINE
  5
9E
  8
0
  6
CONTINUOUS
 62
     7
 10
268.5426235889
 20
450.0307203099
 30
0.0
 11
268.5426235889
 21
452.5307203099
 31
0.0
  0
LINE
  5
9F
  8
0
  6
CONTINUOUS
 62
     7
 10
348.5426235889
 20
450.0307203099
 30
0.0
 11
268.5426235889
 21
450.0307203099
 31
0.0
  0
LINE
  5
A0
  8
0
  6
CONTINUOUS
 62
     7
 10
348.5426235889
 20
452.5307203099
 30
0.0
 11
348.5426235889
 21
450.0307203099
 31
0.0
  0
LINE
  5
A1
  8
0
  6
CONTINUOUS
 62
     7
 10
368.5426235889
 20
452.5307203099
 30
0.0
 11
348.5426235889
 21
452.5307203099
 31
0.0
  0
LINE
  5
A2
  8
0
  6
CONTINUOUS
 62
     7
 10
368.5426235889
 20
450.0307203099
 30
0.0
 11
368.5426235889
 21
452.5307203099
 31
0.0
  0
LINE
  5
A3
  8
0
  6
CONTINUOUS
 62
     7
 10
448.5426235889
 20
450.0307203099
 30
0.0
 11
368.5426235889
 21
450.0307203099
 31
0.0
  0
LINE
  5
A4
  8
0
  6
CONTINUOUS
 62
     7
 10
448.5426235889
 20
452.5307203099
 30
0.0
 11
448.5426235889
 21
450.0307203099
 31
0.0
  0
LINE
  5
A5
  8
0
  6
CONTINUOUS
 62
     7
 10
468.5426235889
 20
452.5307203099
 30
0.0
 11
448.5426235889
 21
452.5307203099
 31
0.0
  0
LINE
  5
A6
  8
0
  6
CONTINUOUS
 62
     7
 10
468.5426235889
 20
450.0307203099
 30
0.0
 11
468.5426235889
 21
452.5307203099
 31
0.0
  0
LINE
  5
A7
  8
0
  6
CONTINUOUS
 62
     7
 10
548.5426235889
 20
450.0307203099
 30
0.0
 11
468.5426235889
 21
450.0307203099
 31
0.0
  0
LINE
  5
A8
  8
0
  6
CONTINUOUS
 62
     7
 10
548.5426235889
 20
452.5307203099
 30
0.0
 11
548.5426235889
 21
450.0307203099
 31
0.0
  0
LINE
  5
A9
  8
0
  6
CONTINUOUS
 62
     7
 10
568.5426235889
 20
452.5307203099
 30
0.0
 11
548.5426235889
 21
452.5307203099
 31
0.0
  0
LINE
  5
AA
  8
0
  6
CONTINUOUS
 62
     7
 10
568.5468895614
 20
450.0307203099
 30
0.0
 11
568.5426235889
 21
452.5307203099
 31
0.0
  0
LINE
  5
AB
  8
0
  6
CONTINUOUS
 62
     7
 10
648.5426235889
 20
450.0307203099
 30
0.0
 11
568.5468895614
 21
450.0307203099
 31
0.0
  0
LINE
  5
AC
  8
0
  6
CONTINUOUS
 62
     7
 10
648.5426235889
 20
452.5307203099
 30
0.0
 11
648.5426235889
 21
450.0307203099
 31
0.0
  0
LINE
  5
AD
  8
0
  6
CONTINUOUS
 62
     7
 10
668.5426235889
 20
452.5307203099
 30
0.0
 11
648.5426235889
 21
452.5307203099
 31
0.0
  0
LINE
  5
AE
  8
0
  6
CONTINUOUS
 62
     7
 10
668.5426235889
 20
450.0307203099
 30
0.0
 11
668.5426235889
 21
452.5307203099
 31
0.0
  0
LINE
  5
AF
  8
0
  6
CONTINUOUS
 62
     7
 10
720.4414381952
 20
450.0307203099
 30
0.0
 11
668.5426235889
 21
450.0307203099
 31
0.0
  0
LINE
  5
B0
  8
0
  6
CONTINUOUS
 62
     7
 10
720.4414381952
 20
452.5307203099
 30
0.0
 11
720.4414381952
 21
450.0307203099
 31
0.0
  0
LINE
  5
B1
  8
0
  6
CONTINUOUS
 62
     7
 10
740.4414381952
 20
452.5307203099
 30
0.0
 11
720.4414381952
 21
452.5307203099
 31
0.0
  0
LINE
  5
B2
  8
0
  6
CONTINUOUS
 62
     7
 10
740.4414381952
 20
450.0307203099
 30
0.0
 11
740.4414381952
 21
452.5307203099
 31
0.0
  0
LINE
  5
B3
  8
0
  6
CONTINUOUS
 62
     7
 10
831.6924741591
 20
450.0307203099
 30
0.0
 11
740.4414381952
 21
450.0307203099
 31
0.0
  0
LINE
  5
B4
  8
0
  6
CONTINUOUS
 62
     7
 10
831.6924741591
 20
452.5307203099
 30
0.0
 11
831.6924741591
 21
450.0307203099
 31
0.0
  0
LINE
  5
B5
  8
0
  6
CONTINUOUS
 62
     7
 10
851.6924741591
 20
452.5307203099
 30
0.0
 11
831.6924741591
 21
452.5307203099
 31
0.0
  0
LINE
  5
B6
  8
0
  6
CONTINUOUS
 62
     7
 10
851.6924741591
 20
450.0307203099
 30
0.0
 11
851.6924741591
 21
452.5307203099
 31
0.0
  0
LINE
  5
B7
  8
0
  6
CONTINUOUS
 62
     7
 10
861.6924741591
 20
450.0307203099
 30
0.0
 11
851.6924741591
 21
450.0307203099
 31
0.0
  0
LINE
  5
B8
  8
0
  6
CONTINUOUS
 62
     7
 10
861.6924742353
 20
413.6061030658
 30
0.0
 11
861.6924741591
 21
450.0307203099
 31
0.0
  0
POLYLINE
  5
B9
  8
0
  6
CONTINUOUS
 62
     7
 66
     1
 10
0.0
 20
0.0
 30
0.0
 70
   128
  0
VERTEX
  5
12A
  8
0
  6
CONTINUOUS
 62
     7
 10
721.4959309811
 20
374.6533229766
 30
0.0
  0
VERTEX
  5
12B
  8
0
  6
CONTINUOUS
 62
     7
 10
756.3614341269
 20
382.4014980847
 30
0.0
  0
VERTEX
  5
12C
  8
0
  6
CONTINUOUS
 62
     7
 10
791.3493590512
 20
391.4763531355
 30
0.0
  0
VERTEX
  5
12D
  8
0
  6
CONTINUOUS
 62
     7
 10
826.459705754
 20
401.8778881292
 30
0.0
  0
VERTEX
  5
12E
  8
0
  6
CONTINUOUS
 62
     7
 10
861.6924742353
 20
413.6061030658
 30
0.0
  0
SEQEND
  5
1E3
  8
0
  6
CONTINUOUS
 62
     7
  0
LINE
  5
BA
  8
0
  6
CONTINUOUS
 62
     7
 10
693.9776254403
 20
352.5996454864
 30
0.0
 11
721.4959309811
 21
374.6533229766
 31
0.0
  0
POLYLINE
  5
BB
  8
0
  6
CONTINUOUS
 62
     7
 66
     1
 10
0.0
 20
0.0
 30
0.0
 70
   128
  0
VERTEX
  5
12F
  8
0
  6
CONTINUOUS
 62
     7
 10
481.637792804
 20
327.2281580606
 30
0.0
  0
VERTEX
  5
130
  8
0
  6
CONTINUOUS
 62
     7
 10
499.7395020816
 20
323.0765969991
 30
0.0
  0
VERTEX
  5
131
  8
0
  6
CONTINUOUS
 62
     7
 10
517.2345630422
 20
319.8534486956
 30
0.0
  0
VERTEX
  5
132
  8
0
  6
CONTINUOUS
 62
     7
 10
534.1157506201
 20
317.5243277079
 30
0.0
  0
VERTEX
  5
133
  8
0
  6
CONTINUOUS
 62
     7
 10
550.375839939
 20
316.0548485458
 30
0.0
  0
VERTEX
  5
134
  8
0
  6
CONTINUOUS
 62
     7
 10
566.0076061226
 20
315.4106257194
 30
0.0
  0
VERTEX
  5
135
  8
0
  6
CONTINUOUS
 62
     7
 10
580.7416497494
 20
315.5479189984
 30
0.0
  0
VERTEX
  5
136
  8
0
  6
CONTINUOUS
 62
     7
 10
594.855796146
 20
316.4155138179
 30
0.0
  0
VERTEX
  5
137
  8
0
  6
CONTINUOUS
 62
     7
 10
608.3432006128
 20
317.9808340693
 30
0.0
  0
VERTEX
  5
138
  8
0
  6
CONTINUOUS
 62
     7
 10
621.19701845
 20
320.2113036438
 30
0.0
  0
VERTEX
  5
139
  8
0
  6
CONTINUOUS
 62
     7
 10
635.6635863962
 20
323.6887114408
 30
0.0
  0
VERTEX
  5
13A
  8
0
  6
CONTINUOUS
 62
     7
 10
649.2109653096
 20
328.0076613759
 30
0.0
  0
VERTEX
  5
13B
  8
0
  6
CONTINUOUS
 62
     7
 10
661.8276069305
 20
333.1131915986
 30
0.0
  0
VERTEX
  5
13C
  8
0
  6
CONTINUOUS
 62
     7
 10
673.5019629991
 20
338.9503402583
 30
0.0
  0
VERTEX
  5
13D
  8
0
  6
CONTINUOUS
 62
     7
 10
684.2224852557
 20
345.4641455045
 30
0.0
  0
VERTEX
  5
13E
  8
0
  6
CONTINUOUS
 62
     7
 10
693.9776254403
 20
352.5996454864
 30
0.0
  0
SEQEND
  5
1E4
  8
0
  6
CONTINUOUS
 62
     7
  0
POLYLINE
  5
BC
  8
0
  6
CONTINUOUS
 62
     7
 66
     1
 10
0.0
 20
0.0
 30
0.0
 70
   128
  0
VERTEX
  5
13F
  8
0
  6
CONTINUOUS
 62
     7
 10
211.4441809469
 20
381.0463404055
 30
0.0
  0
VERTEX
  5
140
  8
0
  6
CONTINUOUS
 62
     7
 10
253.5883186459
 20
374.4804660981
 30
0.0
  0
VERTEX
  5
141
  8
0
  6
CONTINUOUS
 62
     7
 10
295.60652685
 20
367.2703586806
 30
0.0
  0
VERTEX
  5
142
  8
0
  6
CONTINUOUS
 62
     7
 10
337.4988055594
 20
359.4160181531
 30
0.0
  0
VERTEX
  5
143
  8
0
  6
CONTINUOUS
 62
     7
 10
385.713025576
 20
349.5456319014
 30
0.0
  0
VERTEX
  5
144
  8
0
  6
CONTINUOUS
 62
     7
 10
433.7593546575
 20
338.816345204
 30
0.0
  0
VERTEX
  5
145
  8
0
  6
CONTINUOUS
 62
     7
 10
481.637792804
 20
327.2281580606
 30
0.0
  0
SEQEND
  5
1E5
  8
0
  6
CONTINUOUS
 62
     7
  0
POLYLINE
  5
BD
  8
0
  6
CONTINUOUS
 62
     7
 66
     1
 10
0.0
 20
0.0
 30
0.0
 70
   128
  0
VERTEX
  5
146
  8
0
  6
CONTINUOUS
 62
     7
 10
13.48455229
 20
287.8042038996
 30
0.0
  0
VERTEX
  5
147
  8
0
  6
CONTINUOUS
 62
     7
 10
23.6756738226
 20
289.7374008068
 30
0.0
  0
VERTEX
  5
148
  8
0
  6
CONTINUOUS
 62
     7
 10
33.3331654712
 20
292.6358902206
 30
0.0
  0
VERTEX
  5
149
  8
0
  6
CONTINUOUS
 62
     7
 10
42.5192326761
 20
296.3796185683
 30
0.0
  0
VERTEX
  5
14A
  8
0
  6
CONTINUOUS
 62
     7
 10
51.2960808774
 20
300.8485322772
 30
0.0
  0
VERTEX
  5
14B
  8
0
  6
CONTINUOUS
 62
     7
 10
59.7259155154
 20
305.9225777744
 30
0.0
  0
VERTEX
  5
14C
  8
0
  6
CONTINUOUS
 62
     7
 10
67.8705933939
 20
311.4834285001
 30
0.0
  0
VERTEX
  5
14D
  8
0
  6
CONTINUOUS
 62
     7
 10
75.7898197407
 20
317.4234159889
 30
0.0
  0
VERTEX
  5
14E
  8
0
  6
CONTINUOUS
 62
     7
 10
89.9182733941
 20
328.9542646693
 30
0.0
  0
VERTEX
  5
14F
  8
0
  6
CONTINUOUS
 62
     7
 10
103.8497224993
 20
340.7728219281
 30
0.0
  0
VERTEX
  5
150
  8
0
  6
CONTINUOUS
 62
     7
 10
117.9470102571
 20
352.2407090217
 30
0.0
  0
VERTEX
  5
151
  8
0
  6
CONTINUOUS
 62
     7
 10
126.6359282367
 20
358.6875540411
 30
0.0
  0
VERTEX
  5
152
  8
0
  6
CONTINUOUS
 62
     7
 10
135.593545815
 20
364.6404516448
 30
0.0
  0
VERTEX
  5
153
  8
0
  6
CONTINUOUS
 62
     7
 10
144.8982371233
 20
369.961512024
 30
0.0
  0
VERTEX
  5
154
  8
0
  6
CONTINUOUS
 62
     7
 10
154.6283762932
 20
374.5128453701
 30
0.0
  0
VERTEX
  5
155
  8
0
  6
CONTINUOUS
 62
     7
 10
164.862337456
 20
378.1565618745
 30
0.0
  0
VERTEX
  5
156
  8
0
  6
CONTINUOUS
 62
     7
 10
173.3078080694
 20
380.2929366305
 30
0.0
  0
VERTEX
  5
157
  8
0
  6
CONTINUOUS
 62
     7
 10
182.1507117015
 20
381.7169864589
 30
0.0
  0
VERTEX
  5
158
  8
0
  6
CONTINUOUS
 62
     7
 10
191.429064376
 20
382.3618267625
 30
0.0
  0
VERTEX
  5
159
  8
0
  6
CONTINUOUS
 62
     7
 10
201.1808821166
 20
382.1605729439
 30
0.0
  0
VERTEX
  5
15A
  8
0
  6
CONTINUOUS
 62
     7
 10
211.4441809469
 20
381.0463404055
 30
0.0
  0
SEQEND
  5
1E6
  8
0
  6
CONTINUOUS
 62
     7
  0
LINE
  5
BE
  8
0
  6
CONTINUOUS
 62
     7
 10
13.48455229
 20
539.3588491432
 30
0.0
 11
13.48455229
 21
287.8042038996
 31
0.0
  0
LINE
  5
BF
  8
0
  6
CONTINUOUS
 62
     7
 10
71.3616715627
 20
479.7563510842
 30
0.0
 11
13.48455229
 21
539.3588491432
 31
0.0
  0
ARC
  5
C0
  8
0
  6
CONTINUOUS
 62
     7
 10
134.9587053094
 20
537.7748497674
 30
0.0
 40
2.0
 50
180.0
 51
270.0
  0
LINE
  5
C1
  8
0
  6
CONTINUOUS
 62
     7
 10
134.9587053094
 20
535.7748497674
 30
0.0
 11
135.9587053094
 21
535.7748497674
 31
0.0
  0
ARC
  5
C2
  8
0
  6
CONTINUOUS
 62
     7
 10
135.9587053094
 20
537.7748497674
 30
0.0
 40
2.0
 50
270.0
 51
0.0
  0
LINE
  5
C3
  8
0
  6
CONTINUOUS
 62
     7
 10
137.9587053094
 20
537.7748497674
 30
0.0
 11
137.9587053094
 21
543.7748497674
 31
0.0
  0
ARC
  5
C4
  8
0
  6
CONTINUOUS
 62
     7
 10
135.9587053094
 20
543.7748497674
 30
0.0
 40
2.0
 50
360.0
 51
90.0
  0
LINE
  5
C5
  8
0
  6
CONTINUOUS
 62
     7
 10
135.9587053094
 20
545.7748497674
 30
0.0
 11
134.9587053094
 21
545.7748497674
 31
0.0
  0
ARC
  5
C6
  8
0
  6
CONTINUOUS
 62
     7
 10
134.9587053094
 20
543.7748497674
 30
0.0
 40
2.0
 50
90.0
 51
180.0
  0
LINE
  5
C7
  8
0
  6
CONTINUOUS
 62
     7
 10
132.9587053094
 20
543.7748497674
 30
0.0
 11
132.9587053094
 21
537.7748497674
 31
0.0
  0
LINE
  5
C8
  8
0
  6
CONTINUOUS
 62
     7
 10
282.1935699013
 20
588.2748497674
 30
0.0
 11
282.1935699013
 21
576.6748497674
 31
0.0
  0
LINE
  5
C9
  8
0
  6
CONTINUOUS
 62
     7
 10
303.6086088406
 20
588.2748497674
 30
0.0
 11
282.1935699013
 21
588.2748497674
 31
0.0
  0
LINE
  5
CA
  8
0
  6
CONTINUOUS
 62
     7
 10
303.6086088406
 20
590.7748497674
 30
0.0
 11
303.6086088406
 21
588.2748497674
 31
0.0
  0
LINE
  5
CB
  8
0
  6
CONTINUOUS
 62
     7
 10
323.6086088406
 20
590.7748497674
 30
0.0
 11
303.6086088406
 21
590.7748497674
 31
0.0
  0
LINE
  5
CC
  8
0
  6
CONTINUOUS
 62
     7
 10
323.6086088406
 20
588.2748497674
 30
0.0
 11
323.6086088406
 21
590.7748497674
 31
0.0
  0
LINE
  5
CD
  8
0
  6
CONTINUOUS
 62
     7
 10
403.6086088406
 20
588.2748497674
 30
0.0
 11
323.6086088406
 21
588.2748497674
 31
0.0
  0
LINE
  5
CE
  8
0
  6
CONTINUOUS
 62
     7
 10
403.6086088406
 20
590.7748497674
 30
0.0
 11
403.6086088406
 21
588.2748497674
 31
0.0
  0
LINE
  5
CF
  8
0
  6
CONTINUOUS
 62
     7
 10
423.6086088406
 20
590.7748497674
 30
0.0
 11
403.6086088406
 21
590.7748497674
 31
0.0
  0
LINE
  5
D0
  8
0
  6
CONTINUOUS
 62
     7
 10
423.6086088406
 20
588.2748497674
 30
0.0
 11
423.6086088406
 21
590.7748497674
 31
0.0
  0
LINE
  5
D1
  8
0
  6
CONTINUOUS
 62
     7
 10
503.6086088406
 20
588.2748497674
 30
0.0
 11
423.6086088406
 21
588.2748497674
 31
0.0
  0
LINE
  5
D2
  8
0
  6
CONTINUOUS
 62
     7
 10
503.6086088406
 20
590.7748497674
 30
0.0
 11
503.6086088406
 21
588.2748497674
 31
0.0
  0
LINE
  5
D3
  8
0
  6
CONTINUOUS
 62
     7
 10
523.6086088406
 20
590.7748497674
 30
0.0
 11
503.6086088406
 21
590.7748497674
 31
0.0
  0
LINE
  5
D4
  8
0
  6
CONTINUOUS
 62
     7
 10
523.6086088406
 20
588.2748497674
 30
0.0
 11
523.6086088406
 21
590.7748497674
 31
0.0
  0
LINE
  5
D5
  8
0
  6
CONTINUOUS
 62
     7
 10
603.6086088406
 20
588.2748497674
 30
0.0
 11
523.6086088406
 21
588.2748497674
 31
0.0
  0
LINE
  5
D6
  8
0
  6
CONTINUOUS
 62
     7
 10
603.6086088406
 20
590.7748497674
 30
0.0
 11
603.6086088406
 21
588.2748497674
 31
0.0
  0
LINE
  5
D7
  8
0
  6
CONTINUOUS
 62
     7
 10
623.6086088406
 20
590.7748497674
 30
0.0
 11
603.6086088406
 21
590.7748497674
 31
0.0
  0
LINE
  5
D8
  8
0
  6
CONTINUOUS
 62
     7
 10
623.6086088406
 20
588.2748497674
 30
0.0
 11
623.6086088406
 21
590.7748497674
 31
0.0
  0
LINE
  5
D9
  8
0
  6
CONTINUOUS
 62
     7
 10
703.6086088406
 20
588.2748497674
 30
0.0
 11
623.6086088406
 21
588.2748497674
 31
0.0
  0
LINE
  5
DA
  8
0
  6
CONTINUOUS
 62
     7
 10
703.6086088406
 20
590.7748497674
 30
0.0
 11
703.6086088406
 21
588.2748497674
 31
0.0
  0
LINE
  5
DB
  8
0
  6
CONTINUOUS
 62
     7
 10
723.6086088406
 20
590.7748497674
 30
0.0
 11
703.6086088406
 21
590.7748497674
 31
0.0
  0
LINE
  5
DC
  8
0
  6
CONTINUOUS
 62
     7
 10
723.6086088406
 20
588.2748497674
 30
0.0
 11
723.6086088406
 21
590.7748497674
 31
0.0
  0
LINE
  5
DD
  8
0
  6
CONTINUOUS
 62
     7
 10
786.5720069246
 20
588.2748497674
 30
0.0
 11
723.6086088406
 21
588.2748497674
 31
0.0
  0
LINE
  5
DE
  8
0
  6
CONTINUOUS
 62
     7
 10
800.9321118809
 20
563.4024183811
 30
0.0
 11
786.5720069246
 21
588.2748497674
 31
0.0
  0
LINE
  5
DF
  8
0
  6
CONTINUOUS
 62
     7
 10
876.3844551233
 20
485.7007601408
 30
0.0
 11
800.9321118809
 21
563.4024183811
 31
0.0
  0
POLYLINE
  5
E0
  8
0
  6
CONTINUOUS
 62
     7
 66
     1
 10
0.0
 20
0.0
 30
0.0
 70
   128
  0
VERTEX
  5
15B
  8
0
  6
CONTINUOUS
 62
     7
 10
829.4201895297
 20
481.2082089372
 30
0.0
  0
VERTEX
  5
15C
  8
0
  6
CONTINUOUS
 62
     7
 10
831.900090481
 20
480.491018033
 30
0.0
  0
VERTEX
  5
15D
  8
0
  6
CONTINUOUS
 62
     7
 10
835.3461936145
 20
479.4710006374
 30
0.0
  0
VERTEX
  5
15E
  8
0
  6
CONTINUOUS
 62
     7
 10
839.5598438704
 20
478.2996450335
 30
0.0
  0
VERTEX
  5
15F
  8
0
  6
CONTINUOUS
 62
     7
 10
844.3423861895
 20
477.1284395045
 30
0.0
  0
VERTEX
  5
160
  8
0
  6
CONTINUOUS
 62
     7
 10
849.4951655122
 20
476.1088723336
 30
0.0
  0
VERTEX
  5
161
  8
0
  6
CONTINUOUS
 62
     7
 10
854.7240952601
 20
475.4016895204
 30
0.0
  0
VERTEX
  5
162
  8
0
  6
CONTINUOUS
 62
     7
 10
859.9219251327
 20
475.1311127459
 30
0.0
  0
VERTEX
  5
163
  8
0
  6
CONTINUOUS
 62
     7
 10
864.8406196938
 20
475.4455825608
 30
0.0
  0
VERTEX
  5
164
  8
0
  6
CONTINUOUS
 62
     7
 10
869.2127041035
 20
476.4951391648
 30
0.0
  0
VERTEX
  5
165
  8
0
  6
CONTINUOUS
 62
     7
 10
871.9972808524
 20
477.8714596619
 30
0.0
  0
VERTEX
  5
166
  8
0
  6
CONTINUOUS
 62
     7
 10
874.1983054749
 20
479.82101194
 30
0.0
  0
VERTEX
  5
167
  8
0
  6
CONTINUOUS
 62
     7
 10
875.6994671667
 20
482.4090330745
 30
0.0
  0
VERTEX
  5
168
  8
0
  6
CONTINUOUS
 62
     7
 10
876.3844551233
 20
485.7007601408
 30
0.0
  0
SEQEND
  5
1E7
  8
0
  6
CONTINUOUS
 62
     7
  0
POLYLINE
  5
E1
  8
0
  6
CONTINUOUS
 62
     7
 66
     1
 10
0.0
 20
0.0
 30
0.0
 70
   128
  0
VERTEX
  5
169
  8
0
  6
CONTINUOUS
 62
     7
 10
301.5675149828
 20
475.5695006494
 30
0.0
  0
VERTEX
  5
16A
  8
0
  6
CONTINUOUS
 62
     7
 10
309.0369536211
 20
475.6660312534
 30
0.0
  0
VERTEX
  5
16B
  8
0
  6
CONTINUOUS
 62
     7
 10
317.6503547409
 20
475.9449419588
 30
0.0
  0
VERTEX
  5
16C
  8
0
  6
CONTINUOUS
 62
     7
 10
327.3161378757
 20
476.390211106
 30
0.0
  0
VERTEX
  5
16D
  8
0
  6
CONTINUOUS
 62
     7
 10
337.9427225593
 20
476.9858170351
 30
0.0
  0
VERTEX
  5
16E
  8
0
  6
CONTINUOUS
 62
     7
 10
349.4385283251
 20
477.7157380864
 30
0.0
  0
VERTEX
  5
16F
  8
0
  6
CONTINUOUS
 62
     7
 10
361.711974707
 20
478.5639526001
 30
0.0
  0
VERTEX
  5
170
  8
0
  6
CONTINUOUS
 62
     7
 10
377.0508743832
 20
479.6937063129
 30
0.0
  0
VERTEX
  5
171
  8
0
  6
CONTINUOUS
 62
     7
 10
393.1928088108
 20
480.9392900831
 30
0.0
  0
VERTEX
  5
172
  8
0
  6
CONTINUOUS
 62
     7
 10
409.9878541915
 20
482.2744753034
 30
0.0
  0
VERTEX
  5
173
  8
0
  6
CONTINUOUS
 62
     7
 10
427.2860867268
 20
483.6730333663
 30
0.0
  0
VERTEX
  5
174
  8
0
  6
CONTINUOUS
 62
     7
 10
448.3274134899
 20
485.3842428134
 30
0.0
  0
VERTEX
  5
175
  8
0
  6
CONTINUOUS
 62
     7
 10
469.6164480821
 20
487.1038418621
 30
0.0
  0
VERTEX
  5
176
  8
0
  6
CONTINUOUS
 62
     7
 10
490.9002416481
 20
488.7875780572
 30
0.0
  0
VERTEX
  5
177
  8
0
  6
CONTINUOUS
 62
     7
 10
511.9258453328
 20
490.3911989434
 30
0.0
  0
VERTEX
  5
178
  8
0
  6
CONTINUOUS
 62
     7
 10
532.4403102809
 20
491.8704520653
 30
0.0
  0
VERTEX
  5
179
  8
0
  6
CONTINUOUS
 62
     7
 10
552.1906876372
 20
493.1810849677
 30
0.0
  0
VERTEX
  5
17A
  8
0
  6
CONTINUOUS
 62
     7
 10
568.3196915083
 20
494.1367325331
 30
0.0
  0
VERTEX
  5
17B
  8
0
  6
CONTINUOUS
 62
     7
 10
583.5421935213
 20
494.9081164121
 30
0.0
  0
VERTEX
  5
17C
  8
0
  6
CONTINUOUS
 62
     7
 10
597.6989022685
 20
495.4673691693
 30
0.0
  0
VERTEX
  5
17D
  8
0
  6
CONTINUOUS
 62
     7
 10
610.6532471729
 20
495.7909523342
 30
0.0
  0
VERTEX
  5
17E
  8
0
  6
CONTINUOUS
 62
     7
 10
622.4941948488
 20
495.8982986929
 30
0.0
  0
VERTEX
  5
17F
  8
0
  6
CONTINUOUS
 62
     7
 10
633.4397709095
 20
495.8334304453
 30
0.0
  0
VERTEX
  5
180
  8
0
  6
CONTINUOUS
 62
     7
 10
643.7095205607
 20
495.6406593169
 30
0.0
  0
VERTEX
  5
181
  8
0
  6
CONTINUOUS
 62
     7
 10
661.506737026
 20
495.1013487669
 30
0.0
  0
VERTEX
  5
182
  8
0
  6
CONTINUOUS
 62
     7
 10
678.6657959931
 20
494.4668195188
 30
0.0
  0
VERTEX
  5
183
  8
0
  6
CONTINUOUS
 62
     7
 10
695.2303990923
 20
493.7602235842
 30
0.0
  0
VERTEX
  5
184
  8
0
  6
CONTINUOUS
 62
     7
 10
713.2659022927
 20
492.8759279287
 30
0.0
  0
VERTEX
  5
185
  8
0
  6
CONTINUOUS
 62
     7
 10
730.3895684681
 20
491.9119011953
 30
0.0
  0
VERTEX
  5
186
  8
0
  6
CONTINUOUS
 62
     7
 10
746.5246939495
 20
490.8752339384
 30
0.0
  0
VERTEX
  5
187
  8
0
  6
CONTINUOUS
 62
     7
 10
761.5945750675
 20
489.7730167125
 30
0.0
  0
VERTEX
  5
188
  8
0
  6
CONTINUOUS
 62
     7
 10
775.5225081532
 20
488.6123400722
 30
0.0
  0
VERTEX
  5
189
  8
0
  6
CONTINUOUS
 62
     7
 10
788.2317895372
 20
487.400294572
 30
0.0
  0
VERTEX
  5
18A
  8
0
  6
CONTINUOUS
 62
     7
 10
797.3127656049
 20
486.416555218
 30
0.0
  0
VERTEX
  5
18B
  8
0
  6
CONTINUOUS
 62
     7
 10
805.5568522478
 20
485.4089201201
 30
0.0
  0
VERTEX
  5
18C
  8
0
  6
CONTINUOUS
 62
     7
 10
812.9268437137
 20
484.3808286106
 30
0.0
  0
VERTEX
  5
18D
  8
0
  6
CONTINUOUS
 62
     7
 10
819.3855342508
 20
483.3357200221
 30
0.0
  0
VERTEX
  5
18E
  8
0
  6
CONTINUOUS
 62
     7
 10
824.8957181067
 20
482.2770336868
 30
0.0
  0
VERTEX
  5
18F
  8
0
  6
CONTINUOUS
 62
     7
 10
829.4201895297
 20
481.2082089372
 30
0.0
  0
SEQEND
  5
1E8
  8
0
  6
CONTINUOUS
 62
     7
  0
LINE
  5
E2
  8
0
  6
CONTINUOUS
 62
     7
 10
96.2782213054
 20
475.5695006494
 30
0.0
 11
301.5675149828
 21
475.5695006494
 31
0.0
  0
LINE
  5
E3
  8
0
  6
CONTINUOUS
 62
     7
 10
10.4587582705
 20
550.750187275
 30
0.0
 11
96.2782213054
 21
475.5695006494
 31
0.0
  0
LINE
  5
E4
  8
0
  6
CONTINUOUS
 62
     7
 10
10.4587582705
 20
588.2748497674
 30
0.0
 11
10.4587582705
 21
550.750187275
 31
0.0
  0
LINE
  5
E5
  8
0
  6
CONTINUOUS
 62
     7
 10
20.4587582705
 20
588.2748497674
 30
0.0
 11
10.4587582705
 21
588.2748497674
 31
0.0
  0
LINE
  5
E6
  8
0
  6
CONTINUOUS
 62
     7
 10
20.4587582705
 20
590.7748497674
 30
0.0
 11
20.4587582705
 21
588.2748497674
 31
0.0
  0
LINE
  5
E7
  8
0
  6
CONTINUOUS
 62
     7
 10
40.4587582705
 20
590.7748497674
 30
0.0
 11
20.4587582705
 21
590.7748497674
 31
0.0
  0
LINE
  5
E8
  8
0
  6
CONTINUOUS
 62
     7
 10
40.4587582705
 20
588.2748497674
 30
0.0
 11
40.4587582705
 21
590.7748497674
 31
0.0
  0
LINE
  5
E9
  8
0
  6
CONTINUOUS
 62
     7
 10
131.7097942343
 20
588.2748497674
 30
0.0
 11
40.4587582705
 21
588.2748497674
 31
0.0
  0
LINE
  5
EA
  8
0
  6
CONTINUOUS
 62
     7
 10
131.7097942343
 20
590.7748497674
 30
0.0
 11
131.7097942343
 21
588.2748497674
 31
0.0
  0
LINE
  5
EB
  8
0
  6
CONTINUOUS
 62
     7
 10
151.7097942343
 20
590.7748497674
 30
0.0
 11
131.7097942343
 21
590.7748497674
 31
0.0
  0
LINE
  5
EC
  8
0
  6
CONTINUOUS
 62
     7
 10
151.7097942343
 20
588.2748497674
 30
0.0
 11
151.7097942343
 21
590.7748497674
 31
0.0
  0
LINE
  5
ED
  8
0
  6
CONTINUOUS
 62
     7
 10
203.6086088406
 20
588.2748497674
 30
0.0
 11
151.7097942343
 21
588.2748497674
 31
0.0
  0
LINE
  5
EE
  8
0
  6
CONTINUOUS
 62
     7
 10
203.6086088406
 20
590.7748497674
 30
0.0
 11
203.6086088406
 21
588.2748497674
 31
0.0
  0
LINE
  5
EF
  8
0
  6
CONTINUOUS
 62
     7
 10
223.6086088406
 20
590.7748497674
 30
0.0
 11
203.6086088406
 21
590.7748497674
 31
0.0
  0
LINE
  5
F0
  8
0
  6
CONTINUOUS
 62
     7
 10
223.6086088406
 20
588.2748497674
 30
0.0
 11
223.6086088406
 21
590.7748497674
 31
0.0
  0
LINE
  5
F1
  8
0
  6
CONTINUOUS
 62
     7
 10
260.6935699013
 20
588.2748497674
 30
0.0
 11
223.6086088406
 21
588.2748497674
 31
0.0
  0
LINE
  5
F2
  8
0
  6
CONTINUOUS
 62
     7
 10
260.6935699013
 20
576.6748497674
 30
0.0
 11
260.6935699013
 21
588.2748497674
 31
0.0
  0
LINE
  5
F3
  8
0
  6
CONTINUOUS
 62
     7
 10
282.1935699013
 20
576.6748497674
 30
0.0
 11
260.6935699013
 21
576.6748497674
 31
0.0
  0
ARC
  5
F4
  8
0
  6
CONTINUOUS
 62
     7
 10
400.5223908391
 20
140.3979304681
 30
0.0
 40
0.5000000000000087
 50
187.9608172786
 51
6.0286848883
  0
LINE
  5
F5
  8
0
  6
CONTINUOUS
 62
     7
 10
473.0223908391
 20
71.9040004585
 30
0.0
 11
473.0223908391
 21
92.0378100563
 31
0.0
  0
LINE
  5
F6
  8
0
  6
CONTINUOUS
 62
     7
 10
473.0223908391
 20
92.0378100563
 30
0.0
 11
475.5223908391
 21
92.0378100563
 31
0.0
  0
LINE
  5
F7
  8
0
  6
CONTINUOUS
 62
     7
 10
473.0223908391
 20
71.9040004585
 30
0.0
 11
370.1999214995
 21
71.9040004585
 31
0.0
  0
LINE
  5
F8
  8
0
  6
CONTINUOUS
 62
     7
 10
358.5999214995
 20
93.4040004585
 30
0.0
 11
358.5999214995
 21
71.9040004585
 31
0.0
  0
LINE
  5
F9
  8
0
  6
CONTINUOUS
 62
     7
 10
370.1999214995
 20
93.4040004585
 30
0.0
 11
358.5999214995
 21
93.4040004585
 31
0.0
  0
LINE
  5
FA
  8
0
  6
CONTINUOUS
 62
     7
 10
370.1999214995
 20
93.4040004585
 30
0.0
 11
370.1999214995
 21
71.9040004585
 31
0.0
  0
LINE
  5
FB
  8
0
  6
CONTINUOUS
 62
     7
 10
358.5999214995
 20
71.9040004585
 30
0.0
 11
67.9442103755
 21
71.9040004585
 31
0.0
  0
LINE
  5
FC
  8
0
  6
CONTINUOUS
 62
     7
 10
475.5223908391
 20
92.0378100563
 30
0.0
 11
475.5223908391
 21
143.9366246625
 31
0.0
  0
LINE
  5
FD
  8
0
  6
CONTINUOUS
 62
     7
 10
400.0272093326
 20
140.3286825399
 30
0.0
 11
58.9463580049
 21
92.630733451
 31
0.0
  0
LINE
  5
FE
  8
0
  6
CONTINUOUS
 62
     7
 10
58.9463580049
 20
92.630733451
 30
0.0
 11
67.9442103755
 21
71.9040004585
 31
0.0
  0
POLYLINE
  5
FF
  8
0
  6
CONTINUOUS
 62
     7
 66
     1
 10
0.0
 20
0.0
 30
0.0
 70
   128
  0
VERTEX
  5
190
  8
0
  6
CONTINUOUS
 62
     7
 10
475.5223908391
 20
143.9366246625
 30
0.0
  0
VERTEX
  5
191
  8
0
  6
CONTINUOUS
 62
     7
 10
469.2109984924
 20
143.9159963725
 30
0.0
  0
VERTEX
  5
192
  8
0
  6
CONTINUOUS
 62
     7
 10
462.9963412127
 20
143.8541115024
 30
0.0
  0
VERTEX
  5
193
  8
0
  6
CONTINUOUS
 62
     7
 10
456.878419
 20
143.7509700521
 30
0.0
  0
VERTEX
  5
194
  8
0
  6
CONTINUOUS
 62
     7
 10
450.8572318543
 20
143.6065720218
 30
0.0
  0
VERTEX
  5
195
  8
0
  6
CONTINUOUS
 62
     7
 10
444.9327797757
 20
143.4209174114
 30
0.0
  0
VERTEX
  5
196
  8
0
  6
CONTINUOUS
 62
     7
 10
439.105062764
 20
143.1940062209
 30
0.0
  0
VERTEX
  5
197
  8
0
  6
CONTINUOUS
 62
     7
 10
433.3740808194
 20
142.9258384503
 30
0.0
  0
VERTEX
  5
198
  8
0
  6
CONTINUOUS
 62
     7
 10
427.7398339417
 20
142.6164140996
 30
0.0
  0
VERTEX
  5
199
  8
0
  6
CONTINUOUS
 62
     7
 10
422.2023221311
 20
142.2657331688
 30
0.0
  0
VERTEX
  5
19A
  8
0
  6
CONTINUOUS
 62
     7
 10
416.7615453875
 20
141.8737956579
 30
0.0
  0
VERTEX
  5
19B
  8
0
  6
CONTINUOUS
 62
     7
 10
411.4175037109
 20
141.4406015669
 30
0.0
  0
VERTEX
  5
19C
  8
0
  6
CONTINUOUS
 62
     7
 10
406.1701971012
 20
140.9661508959
 30
0.0
  0
VERTEX
  5
19D
  8
0
  6
CONTINUOUS
 62
     7
 10
401.0196255586
 20
140.4504436447
 30
0.0
  0
SEQEND
  5
1E9
  8
0
  6
CONTINUOUS
 62
     7
  0
POLYLINE
  5
100
  8
0
  6
CONTINUOUS
 62
     7
 66
     1
 10
0.0
 20
0.0
 30
0.0
 70
   128
  0
VERTEX
  5
19E
  8
0
  6
CONTINUOUS
 62
     7
 10
475.5223908391
 20
143.9366246625
 30
0.0
  0
VERTEX
  5
19F
  8
0
  6
CONTINUOUS
 62
     7
 10
495.6807284419
 20
143.7187383475
 30
0.0
  0
VERTEX
  5
1A0
  8
0
  6
CONTINUOUS
 62
     7
 10
514.8173018926
 20
143.0650794024
 30
0.0
  0
VERTEX
  5
1A1
  8
0
  6
CONTINUOUS
 62
     7
 10
532.9321111914
 20
141.9756478271
 30
0.0
  0
VERTEX
  5
1A2
  8
0
  6
CONTINUOUS
 62
     7
 10
550.0251563382
 20
140.4504436218
 30
0.0
  0
SEQEND
  5
1EA
  8
0
  6
CONTINUOUS
 62
     7
  0
ARC
  5
101
  8
0
  6
CONTINUOUS
 62
     7
 10
550.5223908391
 20
140.3979304681
 30
0.0
 40
0.4999999999916203
 50
173.9713150984
 51
352.0391827214
  0
LINE
  5
102
  8
0
  6
CONTINUOUS
 62
     7
 10
551.0175723457
 20
140.3286825399
 30
0.0
 11
892.0984236734
 21
92.630733451
 31
0.0
  0
LINE
  5
103
  8
0
  6
CONTINUOUS
 62
     7
 10
892.0984236734
 20
92.630733451
 30
0.0
 11
883.1005713027
 21
71.9040004585
 31
0.0
  0
LINE
  5
104
  8
0
  6
CONTINUOUS
 62
     7
 10
883.1005713027
 20
71.9040004585
 30
0.0
 11
592.4448601787
 21
71.9040004585
 31
0.0
  0
LINE
  5
105
  8
0
  6
CONTINUOUS
 62
     7
 10
592.4448601787
 20
71.9040004585
 30
0.0
 11
592.4448601787
 21
93.4040004585
 31
0.0
  0
LINE
  5
106
  8
0
  6
CONTINUOUS
 62
     7
 10
592.4448601787
 20
93.4040004585
 30
0.0
 11
580.8448601787
 21
93.4040004585
 31
0.0
  0
LINE
  5
107
  8
0
  6
CONTINUOUS
 62
     7
 10
580.8448601787
 20
93.4040004585
 30
0.0
 11
580.8448601787
 21
71.9040004585
 31
0.0
  0
LINE
  5
108
  8
0
  6
CONTINUOUS
 62
     7
 10
580.8448601787
 20
71.9040004585
 30
0.0
 11
478.0223908391
 21
71.9040004585
 31
0.0
  0
LINE
  5
109
  8
0
  6
CONTINUOUS
 62
     7
 10
478.0223908391
 20
71.9040004585
 30
0.0
 11
478.0223908391
 21
92.0378100563
 31
0.0
  0
LINE
  5
10A
  8
0
  6
CONTINUOUS
 62
     7
 10
400.0272093326
 20
140.3286825399
 30
0.0
 11
58.9463580049
 21
92.630733451
 31
0.0
  0
ARC
  5
10B
  8
0
  6
CONTINUOUS
 62
     7
 10
400.5223908391
 20
140.3979304681
 30
0.0
 40
0.4999999999915116
 50
187.9608172786
 51
6.0286849016
  0
POLYLINE
  5
10C
  8
0
  6
CONTINUOUS
 62
     7
 66
     1
 10
0.0
 20
0.0
 30
0.0
 70
   128
  0
VERTEX
  5
1A3
  8
0
  6
CONTINUOUS
 62
     7
 10
475.5223908391
 20
143.9366246625
 30
0.0
  0
VERTEX
  5
1A4
  8
0
  6
CONTINUOUS
 62
     7
 10
455.3640532364
 20
143.7187383475
 30
0.0
  0
VERTEX
  5
1A5
  8
0
  6
CONTINUOUS
 62
     7
 10
436.2274797856
 20
143.0650794024
 30
0.0
  0
VERTEX
  5
1A6
  8
0
  6
CONTINUOUS
 62
     7
 10
418.1126704868
 20
141.9756478271
 30
0.0
  0
VERTEX
  5
1A7
  8
0
  6
CONTINUOUS
 62
     7
 10
401.0196253401
 20
140.4504436218
 30
0.0
  0
SEQEND
  5
1EB
  8
0
  6
CONTINUOUS
 62
     7
  0
LINE
  5
10D
  8
0
  6
CONTINUOUS
 62
     7
 10
473.0223908391
 20
92.0378100563
 30
0.0
 11
478.0223908391
 21
92.0378100563
 31
0.0
  0
LINE
  5
10E
  8
0
  6
CONTINUOUS
 62
     7
 10
473.0223908391
 20
71.9040004585
 30
0.0
 11
473.0223908391
 21
92.0378100563
 31
0.0
  0
LINE
  5
10F
  8
0
  6
CONTINUOUS
 62
     7
 10
370.1999214995
 20
71.9040004585
 30
0.0
 11
473.0223908391
 21
71.9040004585
 31
0.0
  0
LINE
  5
110
  8
0
  6
CONTINUOUS
 62
     7
 10
370.1999214995
 20
93.4040004585
 30
0.0
 11
370.1999214995
 21
71.9040004585
 31
0.0
  0
LINE
  5
111
  8
0
  6
CONTINUOUS
 62
     7
 10
358.5999214995
 20
93.4040004585
 30
0.0
 11
370.1999214995
 21
93.4040004585
 31
0.0
  0
LINE
  5
112
  8
0
  6
CONTINUOUS
 62
     7
 10
358.5999214995
 20
71.9040004585
 30
0.0
 11
358.5999214995
 21
93.4040004585
 31
0.0
  0
LINE
  5
113
  8
0
  6
CONTINUOUS
 62
     7
 10
67.9442103755
 20
71.9040004585
 30
0.0
 11
358.5999214995
 21
71.9040004585
 31
0.0
  0
LINE
  5
114
  8
0
  6
CONTINUOUS
 62
     7
 10
58.9463580049
 20
92.630733451
 30
0.0
 11
67.9442103755
 21
71.9040004585
 31
0.0
  0
LINE
  5
115
  8
0
  6
CONTINUOUS
 62
     7
 10
531.0581133066
 20
15.0037917537
 30
0.0
 11
533.5643787442
 21
53.875086669
 31
0.0
  0
LINE
  5
116
  8
0
  6
CONTINUOUS
 62
     7
 10
574.9906289734
 20
17.8097678968
 30
0.0
 11
531.0581133066
 21
15.0037917537
 31
0.0
  0
LINE
  5
117
  8
0
  6
CONTINUOUS
 62
     7
 10
577.1762373139
 20
44.3708788359
 30
0.0
 11
574.9906289734
 21
17.8097678968
 31
0.0
  0
LINE
  5
118
  8
0
  6
CONTINUOUS
 62
     7
 10
638.5871818925
 20
47.5502901571
 30
0.0
 11
577.1762373139
 21
44.3708788359
 31
0.0
  0
LINE
  5
119
  8
0
  6
CONTINUOUS
 62
     7
 10
683.5814134956
 20
24.7454770432
 30
0.0
 11
638.5871818925
 21
47.5502901571
 31
0.0
  0
LINE
  5
11A
  8
0
  6
CONTINUOUS
 62
     7
 10
876.3799885367
 20
37.059549975
 30
0.0
 11
683.5814134956
 21
24.7454770432
 31
0.0
  0
LINE
  5
11B
  8
0
  6
CONTINUOUS
 62
     7
 10
883.7204192265
 20
53.875086669
 30
0.0
 11
876.3799885367
 21
37.059549975
 31
0.0
  0
LINE
  5
11C
  8
0
  6
CONTINUOUS
 62
     7
 10
533.5643787442
 20
53.875086669
 30
0.0
 11
883.7204192265
 21
53.875086669
 31
0.0
  0
ARC
  5
11D
  8
0
  6
CONTINUOUS
 62
     7
 10
69.0481494544
 20
291.5815639917
 30
0.0
 40
9.999999999999856
 50
47.7253651038
 51
166.6386918902
  0
POLYLINE
  5
11E
  8
0
  6
CONTINUOUS
 62
     7
 66
     1
 10
0.0
 20
0.0
 30
0.0
 70
   128
  0
VERTEX
  5
1A8
  8
0
  6
CONTINUOUS
 62
     7
 10
320.407032632
 20
174.5523388658
 30
0.0
  0
VERTEX
  5
1A9
  8
0
  6
CONTINUOUS
 62
     7
 10
317.4045027583
 20
175.5348966046
 30
0.0
  0
VERTEX
  5
1AA
  8
0
  6
CONTINUOUS
 62
     7
 10
315.0714322427
 20
176.9250096443
 30
0.0
  0
VERTEX
  5
1AB
  8
0
  6
CONTINUOUS
 62
     7
 10
313.3332063083
 20
178.6745170059
 30
0.0
  0
VERTEX
  5
1AC
  8
0
  6
CONTINUOUS
 62
     7
 10
312.1152101781
 20
180.7352577101
 30
0.0
  0
VERTEX
  5
1AD
  8
0
  6
CONTINUOUS
 62
     7
 10
311.1411528049
 20
184.0560377686
 30
0.0
  0
VERTEX
  5
1AE
  8
0
  6
CONTINUOUS
 62
     7
 10
310.8372244004
 20
187.7611078027
 30
0.0
  0
VERTEX
  5
1AF
  8
0
  6
CONTINUOUS
 62
     7
 10
310.9978859213
 20
191.7178002366
 30
0.0
  0
VERTEX
  5
1B0
  8
0
  6
CONTINUOUS
 62
     7
 10
311.4175983242
 20
195.7934474941
 30
0.0
  0
VERTEX
  5
1B1
  8
0
  6
CONTINUOUS
 62
     7
 10
311.8924256207
 20
199.8564764663
 30
0.0
  0
VERTEX
  5
1B2
  8
0
  6
CONTINUOUS
 62
     7
 10
312.6269443431
 20
207.5853110502
 30
0.0
  0
VERTEX
  5
1B3
  8
0
  6
CONTINUOUS
 62
     7
 10
313.1144685799
 20
215.0392692488
 30
0.0
  0
VERTEX
  5
1B4
  8
0
  6
CONTINUOUS
 62
     7
 10
313.4431241809
 20
223.8362172934
 30
0.0
  0
VERTEX
  5
1B5
  8
0
  6
CONTINUOUS
 62
     7
 10
313.5647900966
 20
232.5244801503
 30
0.0
  0
VERTEX
  5
1B6
  8
0
  6
CONTINUOUS
 62
     7
 10
313.5642935901
 20
241.2654704513
 30
0.0
  0
VERTEX
  5
1B7
  8
0
  6
CONTINUOUS
 62
     7
 10
313.3916769815
 20
250.1472411673
 30
0.0
  0
VERTEX
  5
1B8
  8
0
  6
CONTINUOUS
 62
     7
 10
312.6923987925
 20
259.0920688565
 30
0.0
  0
VERTEX
  5
1B9
  8
0
  6
CONTINUOUS
 62
     7
 10
311.9633320292
 20
263.8749423331
 30
0.0
  0
VERTEX
  5
1BA
  8
0
  6
CONTINUOUS
 62
     7
 10
310.9084298669
 20
268.6316260344
 30
0.0
  0
VERTEX
  5
1BB
  8
0
  6
CONTINUOUS
 62
     7
 10
309.4654235254
 20
273.3289576284
 30
0.0
  0
VERTEX
  5
1BC
  8
0
  6
CONTINUOUS
 62
     7
 10
307.5652686622
 20
277.8435883826
 30
0.0
  0
VERTEX
  5
1BD
  8
0
  6
CONTINUOUS
 62
     7
 10
305.1367700045
 20
282.0235395219
 30
0.0
  0
VERTEX
  5
1BE
  8
0
  6
CONTINUOUS
 62
     7
 10
302.1087313999
 20
285.7168205665
 30
0.0
  0
VERTEX
  5
1BF
  8
0
  6
CONTINUOUS
 62
     7
 10
298.4303300279
 20
288.7814532395
 30
0.0
  0
VERTEX
  5
1C0
  8
0
  6
CONTINUOUS
 62
     7
 10
293.4820972445
 20
291.4874193177
 30
0.0
  0
VERTEX
  5
1C1
  8
0
  6
CONTINUOUS
 62
     7
 10
288.1327063862
 20
293.2339770979
 30
0.0
  0
VERTEX
  5
1C2
  8
0
  6
CONTINUOUS
 62
     7
 10
282.6005520196
 20
294.0760258434
 30
0.0
  0
VERTEX
  5
1C3
  8
0
  6
CONTINUOUS
 62
     7
 10
276.9702443301
 20
294.1699021721
 30
0.0
  0
VERTEX
  5
1C4
  8
0
  6
CONTINUOUS
 62
     7
 10
271.3175822612
 20
293.6786235195
 30
0.0
  0
VERTEX
  5
1C5
  8
0
  6
CONTINUOUS
 62
     7
 10
265.7182666445
 20
292.7651184053
 30
0.0
  0
VERTEX
  5
1C6
  8
0
  6
CONTINUOUS
 62
     7
 10
254.7191732553
 20
290.1387870232
 30
0.0
  0
VERTEX
  5
1C7
  8
0
  6
CONTINUOUS
 62
     7
 10
243.9442498897
 20
286.9592836253
 30
0.0
  0
VERTEX
  5
1C8
  8
0
  6
CONTINUOUS
 62
     7
 10
233.1860453258
 20
283.74439883
 30
0.0
  0
VERTEX
  5
1C9
  8
0
  6
CONTINUOUS
 62
     7
 10
222.3903642474
 20
280.5990676688
 30
0.0
  0
VERTEX
  5
1CA
  8
0
  6
CONTINUOUS
 62
     7
 10
211.5775187917
 20
277.4292551898
 30
0.0
  0
VERTEX
  5
1CB
  8
0
  6
CONTINUOUS
 62
     7
 10
200.9313279841
 20
274.3448701356
 30
0.0
  0
VERTEX
  5
1CC
  8
0
  6
CONTINUOUS
 62
     7
 10
190.2108435662
 20
271.5278240069
 30
0.0
  0
VERTEX
  5
1CD
  8
0
  6
CONTINUOUS
 62
     7
 10
179.365671644
 20
269.2279903748
 30
0.0
  0
VERTEX
  5
1CE
  8
0
  6
CONTINUOUS
 62
     7
 10
168.3572587082
 20
267.6809412032
 30
0.0
  0
VERTEX
  5
1CF
  8
0
  6
CONTINUOUS
 62
     7
 10
157.036751508
 20
267.0071972558
 30
0.0
  0
VERTEX
  5
1D0
  8
0
  6
CONTINUOUS
 62
     7
 10
145.7050625421
 20
267.3184003783
 30
0.0
  0
VERTEX
  5
1D1
  8
0
  6
CONTINUOUS
 62
     7
 10
134.4648267707
 20
268.6900835896
 30
0.0
  0
VERTEX
  5
1D2
  8
0
  6
CONTINUOUS
 62
     7
 10
123.4196877646
 20
271.1946007344
 30
0.0
  0
VERTEX
  5
1D3
  8
0
  6
CONTINUOUS
 62
     7
 10
112.6925376431
 20
274.8436335889
 30
0.0
  0
VERTEX
  5
1D4
  8
0
  6
CONTINUOUS
 62
     7
 10
102.6020906251
 20
279.5001575162
 30
0.0
  0
VERTEX
  5
1D5
  8
0
  6
CONTINUOUS
 62
     7
 10
93.0859398517
 20
285.1762073447
 30
0.0
  0
VERTEX
  5
1D6
  8
0
  6
CONTINUOUS
 62
     7
 10
84.1845305913
 20
291.7535862209
 30
0.0
  0
VERTEX
  5
1D7
  8
0
  6
CONTINUOUS
 62
     7
 10
75.7749995494
 20
298.9808536738
 30
0.0
  0
SEQEND
  5
1EC
  8
0
  6
CONTINUOUS
 62
     7
  0
LINE
  5
11F
  8
0
  6
CONTINUOUS
 62
     7
 10
302.0329137036
 20
156.7101156809
 30
0.0
 11
320.407032632
 21
174.5523388658
 31
0.0
  0
LINE
  5
120
  8
0
  6
CONTINUOUS
 62
     7
 10
51.1959924423
 20
156.7101156809
 30
0.0
 11
302.0329137036
 21
156.7101156809
 31
0.0
  0
POLYLINE
  5
121
  8
0
  6
CONTINUOUS
 62
     7
 66
     1
 10
0.0
 20
0.0
 30
0.0
 70
   128
  0
VERTEX
  5
1D8
  8
0
  6
CONTINUOUS
 62
     7
 10
59.3188278949
 20
293.8924733347
 30
0.0
  0
VERTEX
  5
1D9
  8
0
  6
CONTINUOUS
 62
     7
 10
55.9647422129
 20
278.4356889064
 30
0.0
  0
VERTEX
  5
1DA
  8
0
  6
CONTINUOUS
 62
     7
 10
53.1765493172
 20
262.8006695169
 30
0.0
  0
VERTEX
  5
1DB
  8
0
  6
CONTINUOUS
 62
     7
 10
50.8904587945
 20
246.8492836359
 30
0.0
  0
VERTEX
  5
1DC
  8
0
  6
CONTINUOUS
 62
     7
 10
49.1700712851
 20
230.8356905924
 30
0.0
  0
VERTEX
  5
1DD
  8
0
  6
CONTINUOUS
 62
     7
 10
48.111763071
 20
215.1149797577
 30
0.0
  0
VERTEX
  5
1DE
  8
0
  6
CONTINUOUS
 62
     7
 10
47.8072261788
 20
203.1981621334
 30
0.0
  0
VERTEX
  5
1DF
  8
0
  6
CONTINUOUS
 62
     7
 10
47.9915082695
 20
191.6913769151
 30
0.0
  0
VERTEX
  5
1E0
  8
0
  6
CONTINUOUS
 62
     7
 10
48.6384902135
 20
180.314969823
 30
0.0
  0
VERTEX
  5
1E1
  8
0
  6
CONTINUOUS
 62
     7
 10
49.717031706
 20
168.758147273
 30
0.0
  0
VERTEX
  5
1E2
  8
0
  6
CONTINUOUS
 62
     7
 10
51.1959924423
 20
156.7101156809
 30
0.0
  0
SEQEND
  5
1ED
  8
0
  6
CONTINUOUS
 62
     7
  0
LINE
  5
122
  8
0
  6
CONTINUOUS
 62
     7
 10
157.948546916
 20
8.5706132904
 30
0.0
 11
160.4548123536
 21
47.4419082057
 31
0.0
  0
LINE
  5
123
  8
0
  6
CONTINUOUS
 62
     7
 10
201.8810625828
 20
11.3765894335
 30
0.0
 11
157.948546916
 21
8.5706132904
 31
0.0
  0
LINE
  5
124
  8
0
  6
CONTINUOUS
 62
     7
 10
204.0666709233
 20
37.9377003726
 30
0.0
 11
201.8810625828
 21
11.3765894335
 31
0.0
  0
LINE
  5
125
  8
0
  6
CONTINUOUS
 62
     7
 10
265.4776155019
 20
41.1171116938
 30
0.0
 11
204.0666709233
 21
37.9377003726
 31
0.0
  0
LINE
  5
126
  8
0
  6
CONTINUOUS
 62
     7
 10
310.471847105
 20
18.3122985799
 30
0.0
 11
265.4776155019
 21
41.1171116938
 31
0.0
  0
LINE
  5
127
  8
0
  6
CONTINUOUS
 62
     7
 10
503.2704221461
 20
30.6263715117
 30
0.0
 11
310.471847105
 21
18.3122985799
 31
0.0
  0
LINE
  5
128
  8
0
  6
CONTINUOUS
 62
     7
 10
510.6108528359
 20
47.4419082057
 30
0.0
 11
503.2704221461
 21
30.6263715117
 31
0.0
  0
LINE
  5
129
  8
0
  6
CONTINUOUS
 62
     7
 10
160.4548123536
 20
47.4419082057
 30
0.0
 11
510.6108528359
 21
47.4419082057
 31
0.0
  0
ENDSEC
  0
EOF
